<svg width="62" height="20" viewBox="0 0 62 20" fill="none" xmlns="http://www.w3.org/2000/svg">
<g clip-path="url(#clip0_36_32)">
<path d="M60.59 1.09C60.63 2.13 60.7 3.63 60.76 4.25C60.8 4.65 60.73 6.81 60.67 8.55C60.59 11.13 60.54 12.75 60.59 13.32C60.65 14.02 60.68 15.78 60.69 16.84C60.69 17.09 60.69 17.28 60.69 17.43C59.01 17.41 54.84 17.38 53.13 17.38C52.81 17.38 52.56 17.38 52.42 17.38L50.88 17.41C48.94 17.44 45.69 17.5 45.01 17.5H44.94C44.3 17.5 37.13 17.37 36.38 17.35H36.28C35.46 17.35 32.72 17.5 31.24 17.58L30.51 17.62C30.14 17.64 28.94 17.65 27.77 17.66C26.6 17.67 25.4 17.68 24.82 17.7C24.36 17.72 23.25 17.72 22.07 17.72C20.3 17.72 18.3 17.73 17.57 17.78C16.7 17.84 11.88 17.94 8.84996 17.94C7.90996 17.94 7.20996 17.93 6.83996 17.91C6.50996 17.89 6.15996 17.88 5.79996 17.88C4.15996 17.88 2.40996 18.03 1.82996 18.09C1.82996 18.01 1.80996 17.92 1.80996 17.83C1.75996 17.26 1.64996 16.25 1.51996 15.88C1.39996 15.36 1.33996 12.33 1.42996 11.87C1.67996 11.06 1.31996 7.17 1.26996 6.95C1.24996 6.76 1.23996 5.87 1.23996 5.29C1.23996 3.76 1.21996 3.31 1.15996 3.09C1.13996 2.99 1.12996 2.62 1.12996 2.35C1.12996 2.12 1.11996 1.92 1.10996 1.73C1.20996 1.73 1.32996 1.75 1.43996 1.75C2.14996 1.8 3.10996 1.87 4.34996 1.91C4.84996 1.93 5.40996 1.94 5.98996 1.94C7.84996 1.94 10.06 1.86 12 1.79C13.42 1.74 14.75 1.69 15.73 1.68C16.85 1.67 18.09 1.67 19.51 1.67C21.55 1.67 24.09 1.67 27.21 1.63C27.98 1.63 28.64 1.62 29.23 1.62C30.71 1.62 31.65 1.64 32.48 1.66C33.15 1.68 33.75 1.69 34.5 1.69C34.94 1.69 35.42 1.69 36 1.67C39.26 1.6 43.53 1.39 43.54 1.39C43.54 1.39 45.03 1.37 46.63 1.37C47.74 1.37 48.63 1.38 49.28 1.4C49.74 1.41 50.27 1.42 50.85 1.42C52.79 1.42 55.18 1.35 57.05 1.29C58.29 1.25 59.63 1.15 60.54 1.07M61.55 0C61.55 0 59.13 0.25 57.07 0.32C55.46 0.37 52.91 0.45 50.9 0.45C50.33 0.45 49.81 0.45 49.36 0.43C48.61 0.41 47.63 0.4 46.68 0.4C45.07 0.4 43.57 0.42 43.57 0.42C43.57 0.42 39.31 0.63 36.02 0.7C35.45 0.71 34.97 0.72 34.54 0.72C32.87 0.72 31.95 0.65 29.27 0.65C28.69 0.65 28.02 0.65 27.24 0.66C21.98 0.72 18.53 0.69 15.76 0.71C13.41 0.73 9.21996 0.97 6.01996 0.97C5.44996 0.97 4.89996 0.97 4.40996 0.94C2.26996 0.86 0.959957 0.71 0.359957 0.71C0.0699573 0.71 -0.0500427 0.75 0.0199573 0.86C0.199957 1.18 0.129957 2.97 0.219957 3.32C0.309957 3.67 0.239957 6.77 0.319957 7.15C0.399957 7.53 0.659957 11.11 0.509957 11.6C0.359957 12.09 0.439957 15.71 0.599957 16.19C0.759957 16.66 0.999957 19.33 0.899957 19.39C0.889957 19.39 0.889957 19.39 0.889957 19.39C0.889957 19.39 1.31996 19.16 1.76996 19.12C2.18996 19.08 4.12996 18.9 5.83996 18.9C6.17996 18.9 6.50996 18.9 6.81996 18.92C7.24996 18.94 7.97996 18.95 8.87996 18.95C11.91 18.95 16.76 18.84 17.66 18.79C18.83 18.71 23.72 18.75 24.87 18.71C26.02 18.67 29.81 18.67 30.57 18.63C31.31 18.59 35.31 18.36 36.29 18.36C36.32 18.36 36.35 18.36 36.37 18.36C37.19 18.38 44.3 18.5 44.95 18.51C44.97 18.51 45 18.51 45.03 18.51C45.96 18.51 51.41 18.41 52.46 18.4C52.6 18.4 52.84 18.4 53.15 18.4C55.32 18.4 61.04 18.44 61.36 18.46C61.36 18.46 61.37 18.46 61.38 18.46C61.73 18.46 61.74 17.97 61.72 17.88C61.7 17.79 61.69 14.37 61.59 13.25C61.49 12.14 61.85 5.1 61.75 4.16C61.66 3.22 61.54 0.01 61.54 0.01L61.55 0Z" fill="#78460A"/>
</g>
<defs>
<clipPath id="clip0_36_32">
<rect width="61.77" height="19.39" fill="white"/>
</clipPath>
</defs>
</svg>
