<svg width="77" height="109" viewBox="0 0 77 109" fill="none" xmlns="http://www.w3.org/2000/svg">
<path opacity="0.95" fill-rule="evenodd" clip-rule="evenodd" d="M0.93 75.42C0.61 75.23 0.34 75.22 0 74.94C5.43 66.44 31.92 35.47 37.17 28.5C40.43 24.18 45.37 18.93 49.12 13.84C49.22 13.74 49.21 13.98 49.32 13.86C52.71 9.2 56.62 3.61 60.25 0C61.59 0.6 61.3 1.66 62.64 2.23C62.45 2.64 62.84 2.52 62.51 2.77C62.65 3.11 63.07 2.76 63.39 3.01C62.73 4.88 60.49 3.8 59.94 5.36C60.06 5.57 61.06 5.36 60.95 5.38C61.66 5.67 61.09 6.23 61.41 6.6C62.51 6.85 62.64 7.72 63.69 8.04C63.6 8.33 63.69 9.02 63.58 9.51C63.72 9.57 64.07 9.12 64.06 9.4C64.35 9.86 64.26 10.41 64.34 10.91C64.68 10.93 64.94 11.05 65.14 11.11C65.32 11.76 65.35 11.71 65.48 12.35C65.88 12.5 66.25 12.57 66.65 12.79C66.96 13.07 66.67 13.5 66.94 13.79C68 13.64 67.92 15.29 69.24 15.04C69.35 15.6 69.13 16.24 70.1 16.61C69.77 17.44 71.43 18.1 71.28 18.8C71.56 19.02 72.07 18.77 72.15 19.05C72.14 20.48 72.73 21.78 72.35 23.29C72.59 23.51 72.82 23.73 73.19 23.92C72.72 25.05 73.78 25.84 73.91 26.85C74.25 27.05 74.57 26.91 74.71 27.05C74.73 27.22 74.31 27.85 74.28 28.22C74.88 28.82 74.28 29.69 75.05 30.25C74.8 31.77 75.57 32.41 75.28 33.79C75.51 34.03 75.75 33.91 75.79 34.12C75.11 35.6 73.9 37 73.67 38.13C74.41 39.02 74.37 39.96 74.17 40.92C74.6 41.13 75 41.27 75.41 41.4C75.29 41.59 75.12 41.8 75.16 41.96C75.45 42 75.8 42.35 76.07 42.32C68.49 52.36 40.75 85.55 33.29 95.19C33.19 95.29 33.2 95.05 33.09 95.17C29.57 99.4 25.38 103.93 21.68 108.32C21.02 108.69 19.27 108.98 18 108.77C17.05 108.61 16.05 108.08 15.01 107.81C13.99 107.54 12.94 107.48 12.12 107.01C12.04 105.93 12.44 103.84 11.85 102.72C11.66 102.64 11.59 103.05 11.37 102.83C11.76 101.85 12.6 101.65 13.36 101C13.12 100.08 12.76 98.71 12.29 97.65C12.06 97.56 11.9 97.8 11.72 97.9C11.44 97.63 10.8 97.1 10.64 97.01C10.48 94.94 9.65 91.81 8.11 90.27C7.47 89.29 6.71 87.72 6.04 86.38C5.75 86.13 5.55 86.24 5.26 85.99C4.4 84.78 4.88 83.02 4.52 81.3C3.64 80.24 1.87 78.75 1.69 77.97C0.83 77.26 1.18 76.28 0.93 75.42Z" fill="#FBF4E2"/>
</svg>
