<svg width="166" height="64" viewBox="0 0 166 64" fill="none" xmlns="http://www.w3.org/2000/svg">
<path opacity="0.95" fill-rule="evenodd" clip-rule="evenodd" d="M136.82 62.15C136.86 62.68 137.06 63.01 137 63.63C122.6 64.06 64.73 57.65 52.28 57.05C44.55 56.68 34.39 55.05 25.36 54.71C25.16 54.67 25.46 54.49 25.22 54.46C16.98 54.2 7.24997 54.08 0.0599734 52.69C-0.310027 50.62 1.17997 50.12 0.769973 48.07C1.40997 47.96 0.949973 47.6 1.50997 47.79C1.78997 47.35 1.03997 47.14 1.08997 46.56C3.82997 45.84 4.35997 49.35 6.62997 48.74C6.77997 48.43 5.72997 47.42 5.83997 47.53C5.60997 46.46 6.72997 46.67 6.90997 46C6.30997 44.5 7.23997 43.65 6.77997 42.14C7.19997 42.01 7.92997 41.35 8.60997 41.09C8.56997 40.87 7.74997 40.82 8.09997 40.61C8.40997 39.9 9.12997 39.56 9.65997 39.07C9.40997 38.65 9.33997 38.25 9.24997 37.96C9.86997 37.22 9.78997 37.23 10.44 36.56C10.3 35.97 10.08 35.48 10.01 34.83C10.1 34.24 10.83 34.24 10.96 33.68C9.92997 32.55 11.94 31.31 10.59 29.96C11.17 29.38 12.1 29.13 11.76 27.68C13.01 27.4 12.45 24.91 13.4 24.52C13.43 24.01 12.73 23.62 12.99 23.3C14.69 22.16 15.74 20.42 17.84 19.65C17.91 19.2 17.98 18.74 17.91 18.16C19.62 17.8 19.71 15.92 20.79 14.96C20.76 14.4 20.33 14.13 20.38 13.85C20.56 13.7 21.64 13.68 22.1 13.42C22.33 12.23 23.83 12.24 23.88 10.88C25.88 9.95999 26.02 8.52999 27.88 7.75999C27.98 7.29999 27.65 7.09999 27.85 6.88999C30.14 6.50999 32.77 6.79999 34.29 6.17999C34.74 4.58999 35.89 3.87999 37.18 3.34999C37.09 2.66999 36.92 2.07999 36.75 1.49999C37.07 1.48999 37.46 1.51999 37.61 1.34999C37.43 0.97999 37.56 0.27999 37.31 -0.0100098C55.25 0.86999 116.75 6.95999 134.14 8.02999C134.34 8.07999 134.04 8.24999 134.28 8.27999C142.11 9.03999 150.82 10.35 158.99 11.18C159.96 11.67 161.71 13.5 162.48 15.17C163.06 16.43 163.23 18.03 163.74 19.48C164.24 20.9 165.02 22.18 165.12 23.54C163.9 24.5 161.12 25.71 160.27 27.31C160.33 27.6 160.87 27.36 160.79 27.79C159.33 28.12 158.42 27.29 157.03 26.91C156.14 27.92 154.81 29.45 153.93 30.87C154.01 31.22 154.42 31.2 154.69 31.34C154.59 31.89 154.49 33.07 154.51 33.33C152.19 35.18 149.17 38.67 148.58 41.73C147.93 43.27 146.69 45.43 145.66 47.3C145.59 47.84 145.89 47.99 145.83 48.53C145.09 50.52 142.62 51.36 140.89 53.17C140.35 55.05 140.02 58.35 139.23 59.19C139.08 60.78 137.64 61.16 136.83 62.13L136.82 62.15Z" fill="#FBF4E2"/>
</svg>
