<svg width="335" height="98" viewBox="0 0 335 98" fill="none" xmlns="http://www.w3.org/2000/svg">
<path opacity="0.95" fill-rule="evenodd" clip-rule="evenodd" d="M6.72998 5.60989C7.28998 4.41989 8.68998 3.42989 8.82998 2.12989C8.91998 1.29989 8.06998 1.18989 8.17998 0.119886C10.29 -0.290114 12.45 0.449886 14.67 0.779886C16.87 1.10989 19.22 1.38989 21.51 1.74989C31.79 3.33989 43.83 5.23989 56.09 6.73989C83.29 10.0599 113.54 15.6299 142.79 18.6099C164.75 21.3299 194.49 25.6499 218.75 28.7799C222.92 29.3199 227.06 29.7599 231.31 30.4399C262.95 35.5099 300.2 38.9499 332.42 43.5499C332.47 45.5199 332.58 46.0099 333.52 47.2899C334 47.9499 334.62 48.2799 334.58 49.0999C334.53 50.7199 332.39 51.5599 332.5 53.4799C332.09 53.6099 331.67 54.4399 331.16 54.9899C330.69 55.5099 329.76 55.9299 330.08 56.4099C329.75 56.1599 329.43 56.3499 329.06 56.4099C328.86 56.4399 328.46 56.4899 328.26 56.5699C328.07 56.6499 327.89 57.0299 327.68 57.1399C327.55 57.1999 327.76 56.7999 327.58 56.8699C324.99 57.9799 322.81 59.8699 319.62 59.7599C317.96 63.0399 315.12 62.5899 314.15 65.5299C313 65.1199 312.17 65.9199 311.59 66.3799C310.58 67.1999 309.67 67.8099 308.51 68.4499C308.35 69.4699 307.71 69.8799 307.12 70.3399C306.47 72.6599 305.13 74.2399 304.33 76.3099C303.44 78.6099 303.36 81.5799 302.46 84.1999C301.3 84.7199 300.62 85.4499 299.03 85.9699C299.08 86.8999 300.54 88.0299 300.21 89.9799C300.06 90.8499 299.08 91.8299 298.82 92.9099C298.5 94.2899 298.86 95.1799 298.06 96.0399C297.43 96.6999 295.3 97.3399 294.14 97.4899C292.34 97.7299 290.36 97.3599 288.24 97.2899C286.51 97.2299 284.55 97.4099 282.84 97.1499C279.29 96.5899 275.89 95.2299 272.33 94.5799C268.74 93.9299 264.96 93.8499 261.26 93.3599C257.4 92.8499 253.47 92.6499 249.54 92.1899C223.5 89.1199 197.14 84.6399 170.57 81.3999C148.43 78.6999 128.22 75.7299 105.72 72.0699C87.7 68.6399 64.63 67.4699 44.18 64.0499C40.35 63.4099 34.98 62.7199 30.64 62.0099C26.37 61.3199 22.35 59.9399 18.46 59.3699C15.36 58.9099 12.58 59.4299 9.70998 59.3299C5.64998 59.1899 4.29998 56.2799 1.83998 55.1499C1.84998 53.8399 1.76998 52.5999 1.64998 51.3899C1.69998 51.1899 2.10998 51.0599 2.40998 50.4499C2.66998 49.8999 3.10998 48.5499 2.04998 48.0799C2.12998 47.6199 2.81998 47.3999 2.56998 46.9799C2.09998 45.8599 2.26998 44.2199 0.89998 43.8099C3.02998 43.0899 0.67998 41.1199 -0.0200195 39.6999C0.18998 39.2399 0.88998 39.3999 1.09998 38.9399C-0.450019 37.4299 2.23998 35.4399 0.93998 33.8999C1.13998 33.3599 1.49998 33.0399 1.74998 32.5799C2.20998 32.1699 0.82998 31.7399 1.39998 31.2499C2.19998 30.4599 4.15998 30.5599 4.87998 30.1299C5.17998 29.9999 4.22998 29.8899 4.16998 29.6599C4.35998 28.7999 5.25998 29.0699 5.63998 28.1699C6.24998 26.6999 5.77998 24.4599 5.86998 23.0399C5.44998 22.1699 4.24998 20.8499 3.96998 20.6199C4.26998 19.8199 6.99998 19.4699 6.91998 18.6599C8.41998 17.8899 6.75998 16.9799 6.85998 15.9499C6.97998 14.7599 7.71998 14.4399 7.94998 13.3799C6.86998 12.1899 7.52998 10.4999 6.79998 8.98989C6.96998 8.47989 7.10998 7.90989 7.36998 7.50989C7.26998 6.77989 6.86998 6.29989 6.68998 5.61989L6.72998 5.60989Z" fill="#FBF4E2"/>
</svg>
