<svg width="71" height="82" viewBox="0 0 71 82" fill="none" xmlns="http://www.w3.org/2000/svg">
<path opacity="0.95" fill-rule="evenodd" clip-rule="evenodd" d="M-9.76585e-06 53.93C0.16999 53.68 0.18999 52.99 0.27999 52.54C4.31999 48.64 7.70999 45.65 11.84 41.34C11.96 41.26 11.89 41.51 12.03 41.41C18.22 35.23 34.35 20.37 40.69 14.06C44.96 10.61 51.7 3.98 55.85 0C56.38 1.05 57 0.69 57.68 0.98C57.99 1.33 57.38 1.66 57.53 2C58.63 2.39 58.56 2.4 59.25 2.34C58.88 2.45 59.63 2.99 59.54 3.55C59.79 3.74 60.05 3.49 60.3 3.56C61.05 4.17 60.79 4.49 60.85 5.16C61.76 6.21 61.15 7.24 61.38 8.28C61.91 8.51 62.22 8.33 62.58 8.62C63.17 9.09 62.81 9.96 62.93 10.66C63.14 10.92 63.35 11.07 63.56 11.18C63.5 11.64 63.22 12.1 63.16 12.57C64.87 13.87 64.75 14.67 65.58 15.73C65.29 16.11 65.1 16.48 65.18 16.87C65.94 17.16 66.98 17.48 67.19 18.3C67.18 19.95 68.52 20.97 68.27 22.26C68.06 23.31 67.33 23.8 67.41 24.72C67.42 24.88 67.43 25.2 67.47 25.42C67.61 26.33 68.29 27.22 67.99 28.67C68.19 28.81 68.19 29.26 68.49 29.19C68.65 29.99 68.89 30.96 69.4 31.81C69.61 32.15 69.51 31.71 69.33 32.13C69.07 32.75 69.91 33.8 68.98 34.48C69 34.84 69.22 35.2 69.28 35.57C69.24 35.86 68.91 35.76 68.83 36.14C70.11 36.92 69.12 38.1 69.67 39.08C69.56 39.29 69.4 39.5 69.15 39.7C69.86 40.26 70.29 40.07 70.91 40.88C69.69 43.28 67.16 45.46 64.64 47.45C62.08 49.48 49.67 61.99 47.47 63.91C45.33 65.77 43.37 67.81 41.27 69.66C40.41 70.42 39.6 71.24 38.76 71.97C34.65 75.53 30.04 77.89 26.41 80.81C26.29 80.67 25.43 81.05 25.33 81.23C24.59 80.82 22.39 81.62 22.42 79.92C21.87 79.46 21.33 79.35 20.79 78.62C21.39 77.18 21.67 75.68 21.56 74.37C20.92 73.7 20.66 74.45 20.03 74.48C19.94 74.03 20.14 73.63 19.67 73.33C19.21 73.33 19.13 73.64 18.65 73.44C18.26 73.08 18.51 72.75 18.47 72.48C18.46 72.4 18.37 71.51 17.54 71C17.37 70.9 17.15 71 16.97 70.8C16.61 70.4 16.79 69.96 16.42 69.58C14.95 69.56 14.46 70.02 13.11 69.27C13.47 68 13.93 66.8 14 65.4C13.43 65.79 13.21 65.21 12.61 64.87C12.58 64.67 12.75 64.07 12.43 63.66C11.89 63.49 11.26 63.82 10.91 63.63C10.74 63.19 10.61 63.11 10.29 62.73C8.51999 62.9 7.68999 59.54 5.94999 59.17C6.17999 58.05 4.53999 56.77 3.89999 56.15C3.58999 55.86 3.43999 55.48 3.26999 55.38C2.83999 55.11 2.16999 55.44 1.86999 55.23C1.83999 55.21 1.61999 54.44 1.62999 54.47C1.03999 53.75 0.53999 54.57 -0.0100098 53.93H-9.76585e-06Z" fill="#FBF4E2"/>
</svg>
