<svg width="214" height="51" viewBox="0 0 214 51" fill="none" xmlns="http://www.w3.org/2000/svg">
<path opacity="0.95" fill-rule="evenodd" clip-rule="evenodd" d="M0.199984 16.95C0.409984 16.12 1.16998 15.32 1.09998 14.47C1.04998 13.93 0.499984 13.97 0.429984 13.28C1.71998 12.75 3.17998 12.95 4.62998 12.88C6.06998 12.81 7.59998 12.69 9.08998 12.63C15.82 12.35 23.7 12.04 31.68 11.44C49.37 10.12 69.28 9.84999 88.23 8.04999C102.52 7.00999 121.95 6.00999 137.75 4.93999C140.46 4.75999 143.15 4.51999 145.94 4.40999C166.67 3.63999 190.75 1.13999 211.8 -0.0100098C212.08 1.23999 212.21 1.52999 212.97 2.22999C213.36 2.58999 213.79 2.71999 213.87 3.23999C214.04 4.27999 212.79 5.07999 213.1 6.28999C212.86 6.41999 212.69 6.99999 212.44 7.41999C212.2 7.80999 211.67 8.18999 211.93 8.45999C211.69 8.34999 211.51 8.50999 211.28 8.58999C211.16 8.62999 210.91 8.71999 210.79 8.78999C210.68 8.85999 210.61 9.12999 210.49 9.22999C210.41 9.28999 210.49 8.99999 210.39 9.06999C208.89 10.1 207.74 11.57 205.7 11.91C205.06 14.2 203.2 14.27 202.95 16.27C202.17 16.16 201.74 16.77 201.43 17.13C200.89 17.78 200.39 18.28 199.73 18.83C199.76 19.5 199.4 19.84 199.08 20.21C198.96 21.77 198.31 22.94 198.06 24.35C197.79 25.93 198.11 27.82 197.87 29.6C197.2 30.08 196.86 30.62 195.91 31.16C196.06 31.74 197.13 32.27 197.16 33.56C197.17 34.13 196.68 34.88 196.65 35.59C196.62 36.51 196.96 37.03 196.56 37.67C196.25 38.17 194.97 38.84 194.26 39.09C193.15 39.47 191.85 39.48 190.49 39.7C189.38 39.88 188.16 40.24 187.04 40.29C184.71 40.38 182.38 39.95 180.04 39.98C177.68 40.02 175.27 40.44 172.86 40.6C170.34 40.76 167.83 41.13 165.27 41.33C148.35 42.66 131.05 43.14 113.76 44.43C99.36 45.5 86.15 46.16 71.41 46.68C59.54 46.77 44.74 48.93 31.32 49.34C28.81 49.42 25.31 49.65 22.46 49.75C19.66 49.85 16.93 49.48 14.39 49.61C12.36 49.71 10.66 50.39 8.82998 50.69C6.23998 51.11 5.00998 49.43 3.30998 49.03C3.14998 48.2 2.93998 47.42 2.71998 46.67C2.71998 46.54 2.96998 46.4 3.07998 45.98C3.16998 45.6 3.27998 44.68 2.55998 44.52C2.55998 44.22 2.95998 43.99 2.74998 43.76C2.30998 43.11 2.20998 42.05 1.28998 41.96C2.54998 41.23 0.809984 40.28 0.189984 39.47C0.259984 39.15 0.729984 39.17 0.799984 38.84C-0.370016 38.08 1.08998 36.47 0.0599843 35.66C0.119984 35.29 0.309984 35.04 0.409984 34.72C0.649984 34.4 -0.280016 34.3 0.0199843 33.92C0.429984 33.32 1.67998 33.13 2.08998 32.77C2.25998 32.65 1.64998 32.7 1.57998 32.56C1.57998 31.99 2.19998 32.05 2.32998 31.43C2.52998 30.42 1.94998 29.06 1.82998 28.14C1.45998 27.64 0.529984 26.95 0.319984 26.84C0.409984 26.29 2.09998 25.73 1.94998 25.22C2.79998 24.54 1.63998 24.18 1.56998 23.51C1.48998 22.74 1.92998 22.44 1.93998 21.74C1.09998 21.12 1.30998 19.96 0.659984 19.09C0.699984 18.74 0.719984 18.37 0.839984 18.08C0.689984 17.63 0.369984 17.37 0.169984 16.96L0.199984 16.95Z" fill="#FBF4E2"/>
</svg>
