<svg width="347" height="240" viewBox="0 0 347 240" fill="none" xmlns="http://www.w3.org/2000/svg">
<g clip-path="url(#clip0_183_443)">
<path d="M323.14 205V0.330078" stroke="#8C5014" stroke-miterlimit="10"/>
<path d="M272.14 205V0.330078" stroke="#8C5014" stroke-miterlimit="10"/>
<path d="M216.33 205V0.330078" stroke="#8C5014" stroke-miterlimit="10"/>
<path d="M165.14 205.05V0.52002" stroke="#8C5014" stroke-miterlimit="10"/>
<path d="M111.14 205V0.330078" stroke="#8C5014" stroke-miterlimit="10"/>
<path d="M85.14 205V0.330078" stroke="#8C5014" stroke-miterlimit="10"/>
<path d="M53.14 205V0.330078" stroke="#8C5014" stroke-miterlimit="10"/>
<path d="M23.14 0V204.66H346.64" stroke="#8C5014" stroke-miterlimit="10"/>
<path d="M346.64 95.52H23.64V13.52H323.64L346.64 95.52Z" fill="#14283C"/>
<path d="M216.64 13.52H23.64V95.52H216.64V13.52Z" fill="#284678"/>
<path d="M346.64 191.52H52.64V109.52H323.64L346.64 191.52Z" fill="#783C00"/>
<path d="M216.64 109.52H52.64V191.52H216.64V109.52Z" fill="#8C5014"/>
<path d="M0 233.95C0.27 233.98 0.8 234.01 1.26 234.01H5.88C6.3 234.01 6.63 233.97 6.83 233.95V235.18C6.64 235.17 6.26 235.14 5.89 235.14H1.26C0.78 235.14 0.28 235.16 0 235.18V233.95Z" fill="#8C5014"/>
<path d="M15.42 230.66C15.04 230.21 14.41 229.89 13.81 229.89C12.49 229.89 11.4 230.88 11.33 233.83C11.93 233.09 12.83 232.64 13.57 232.64C15.31 232.64 16.47 233.7 16.47 235.89C16.47 237.94 15.07 239.27 13.39 239.27C11.43 239.27 9.83002 237.63 9.83002 234.13C9.83002 230.17 11.69 228.58 13.72 228.58C14.87 228.58 15.71 229.07 16.3 229.69L15.42 230.67V230.66ZM14.97 235.89C14.97 234.56 14.38 233.82 13.28 233.82C12.68 233.82 11.98 234.14 11.36 235.03C11.53 237.07 12.27 238.04 13.38 238.04C14.28 238.04 14.98 237.23 14.98 235.9L14.97 235.89Z" fill="#8C5014"/>
<path d="M24.88 233.78C25.1 233.78 25.46 233.78 25.71 233.74V234.71C25.43 234.68 25.08 234.68 24.88 234.68H23.53C23.36 236.9 22.51 238.36 20.97 239.29L19.99 238.64C20.23 238.54 20.6 238.32 20.82 238.15C21.63 237.49 22.39 236.49 22.54 234.68H20.58C20.2 235.3 19.6 236.05 19.18 236.41L18.26 235.88C18.89 235.41 19.44 234.69 19.77 234.15C20.04 233.72 20.22 233.27 20.32 232.87C20.38 232.67 20.43 232.43 20.45 232.22L21.55 232.46C21.47 232.66 21.4 232.83 21.35 233.01C21.27 233.23 21.16 233.51 21.03 233.78H24.88Z" fill="#8C5014"/>
<path d="M34.14 237.94C34.14 238.54 33.98 238.83 33.58 238.98C33.16 239.15 32.48 239.17 31.44 239.17C31.38 238.9 31.2 238.45 31.04 238.19C31.82 238.23 32.62 238.22 32.86 238.21C33.08 238.21 33.16 238.13 33.16 237.92V236.17H28.62C28.36 237.29 27.86 238.4 26.91 239.21C26.77 239.01 26.41 238.67 26.2 238.53C27.76 237.19 27.91 235.23 27.91 233.66V230.52H34.15V237.94H34.14ZM33.16 235.27V233.79H28.86C28.86 234.25 28.83 234.75 28.77 235.27H33.16ZM28.85 231.43V232.91H33.15V231.43H28.85Z" fill="#8C5014"/>
<path d="M77.53 230.66C77.15 230.21 76.52 229.89 75.92 229.89C74.6 229.89 73.51 230.88 73.44 233.83C74.04 233.09 74.94 232.64 75.68 232.64C77.42 232.64 78.58 233.7 78.58 235.89C78.58 237.94 77.18 239.27 75.5 239.27C73.54 239.27 71.94 237.63 71.94 234.13C71.94 230.17 73.8 228.58 75.83 228.58C76.98 228.58 77.82 229.07 78.41 229.69L77.53 230.67V230.66ZM77.08 235.89C77.08 234.56 76.49 233.82 75.39 233.82C74.79 233.82 74.09 234.14 73.47 235.03C73.64 237.07 74.38 238.04 75.49 238.04C76.39 238.04 77.09 237.23 77.09 235.9L77.08 235.89Z" fill="#8C5014"/>
<path d="M86.99 233.78C87.21 233.78 87.57 233.78 87.82 233.74V234.71C87.54 234.68 87.19 234.68 86.99 234.68H85.64C85.47 236.9 84.62 238.36 83.08 239.29L82.1 238.64C82.34 238.54 82.71 238.32 82.93 238.15C83.74 237.49 84.5 236.49 84.65 234.68H82.69C82.31 235.3 81.71 236.05 81.29 236.41L80.37 235.88C81 235.41 81.55 234.69 81.88 234.15C82.15 233.72 82.33 233.27 82.43 232.87C82.49 232.67 82.54 232.43 82.56 232.22L83.66 232.46C83.58 232.66 83.51 232.83 83.46 233.01C83.38 233.23 83.27 233.51 83.14 233.78H86.99Z" fill="#8C5014"/>
<path d="M96.25 237.94C96.25 238.54 96.09 238.83 95.69 238.98C95.27 239.15 94.59 239.17 93.55 239.17C93.49 238.9 93.31 238.45 93.15 238.19C93.93 238.23 94.73 238.22 94.97 238.21C95.19 238.21 95.27 238.13 95.27 237.92V236.17H90.73C90.47 237.29 89.97 238.4 89.02 239.21C88.88 239.01 88.52 238.67 88.31 238.53C89.87 237.19 90.02 235.23 90.02 233.66V230.52H96.26V237.94H96.25ZM95.27 235.27V233.79H90.97C90.97 234.25 90.94 234.75 90.88 235.27H95.27ZM90.96 231.43V232.91H95.26V231.43H90.96Z" fill="#8C5014"/>
<path d="M103.61 237.87H105.86V230.7H104.01V229.68C104.98 229.5 105.66 229.26 106.25 228.9H107.47V237.88H109.49V239.21H103.61V237.88V237.87Z" fill="#8C5014"/>
<path d="M117.53 232.91V234.75C118.31 234.29 118.96 233.8 119.45 233.3L120.36 233.86C119.59 234.58 118.62 235.25 117.55 235.84L117.57 238.08C117.57 238.7 117.42 238.99 117.03 239.14C116.62 239.3 115.97 239.33 115.02 239.33C114.96 239.05 114.8 238.62 114.65 238.35C115.36 238.38 116.09 238.37 116.3 238.35C116.52 238.35 116.59 238.28 116.58 238.08V236.33C115.35 236.92 114.02 237.4 112.7 237.75C112.6 237.51 112.35 237.11 112.19 236.89C113.69 236.53 115.23 235.96 116.56 235.28V232.9H112.53V231.98H116.54V230.12H117.51V231.99H121.18V232.91H117.53Z" fill="#8C5014"/>
<path d="M155.82 238.27C158.86 235.58 160.43 233.58 160.43 231.88C160.43 230.76 159.83 229.99 158.68 229.99C157.87 229.99 157.2 230.51 156.65 231.14L155.74 230.24C156.62 229.29 157.53 228.7 158.88 228.7C160.77 228.7 161.99 229.93 161.99 231.8C161.99 233.79 160.41 235.85 158.22 237.94C158.75 237.88 159.4 237.84 159.9 237.84H162.48V239.21H155.83V238.27H155.82Z" fill="#8C5014"/>
<path d="M170.34 232.92V234.76C171.12 234.3 171.77 233.81 172.26 233.31L173.17 233.87C172.4 234.59 171.43 235.26 170.36 235.85L170.38 238.09C170.38 238.71 170.23 239 169.84 239.15C169.43 239.31 168.78 239.34 167.83 239.34C167.77 239.06 167.61 238.63 167.46 238.36C168.17 238.39 168.9 238.38 169.11 238.36C169.33 238.36 169.4 238.29 169.39 238.09V236.34C168.16 236.93 166.83 237.41 165.51 237.76C165.41 237.52 165.16 237.12 165 236.9C166.5 236.54 168.04 235.97 169.37 235.29V232.91H165.34V231.99H169.35V230.13H170.32V232H173.99V232.92H170.34Z" fill="#8C5014"/>
<path d="M208.54 237.96L209.32 236.92C209.92 237.54 210.69 238.05 211.76 238.05C212.92 238.05 213.72 237.41 213.72 236.34C213.72 235.19 212.99 234.45 210.67 234.45V233.26C212.7 233.26 213.37 232.49 213.37 231.45C213.37 230.54 212.77 229.97 211.79 229.95C210.99 229.96 210.32 230.36 209.73 230.93L208.89 229.92C209.7 229.19 210.66 228.67 211.85 228.67C213.7 228.67 215 229.62 215 231.33C215 232.52 214.31 233.35 213.22 233.75V233.82C214.41 234.11 215.35 235.01 215.35 236.4C215.35 238.26 213.8 239.36 211.9 239.36C210.28 239.36 209.22 238.72 208.54 237.94V237.96Z" fill="#8C5014"/>
<path d="M223.28 232.91V234.75C224.06 234.29 224.71 233.8 225.2 233.3L226.11 233.86C225.34 234.58 224.37 235.25 223.3 235.84L223.32 238.08C223.32 238.7 223.17 238.99 222.78 239.14C222.37 239.3 221.72 239.33 220.77 239.33C220.71 239.05 220.55 238.62 220.4 238.35C221.11 238.38 221.84 238.37 222.05 238.35C222.27 238.35 222.34 238.28 222.33 238.08V236.33C221.1 236.92 219.77 237.4 218.45 237.75C218.35 237.51 218.1 237.11 217.94 236.89C219.44 236.53 220.98 235.96 222.31 235.28V232.9H218.28V231.98H222.29V230.12H223.26V231.99H226.93V232.91H223.28Z" fill="#8C5014"/>
<path d="M268.77 236.42H267.45V239.19H265.94V236.42H261.49V235.34L265.59 228.88H267.45V235.17H268.77V236.42ZM265.94 235.18V232.48C265.94 231.92 266 231.05 266.02 230.49H265.96C265.71 231.01 265.43 231.54 265.13 232.07L263.1 235.18H265.93H265.94Z" fill="#8C5014"/>
<path d="M276.34 232.91V234.75C277.12 234.29 277.77 233.8 278.26 233.3L279.17 233.86C278.4 234.58 277.43 235.25 276.36 235.84L276.38 238.08C276.38 238.7 276.23 238.99 275.84 239.14C275.43 239.3 274.78 239.33 273.83 239.33C273.77 239.05 273.61 238.62 273.46 238.35C274.17 238.38 274.9 238.37 275.11 238.35C275.33 238.35 275.4 238.28 275.39 238.08V236.33C274.16 236.92 272.83 237.4 271.51 237.75C271.41 237.51 271.16 237.11 271 236.89C272.5 236.53 274.04 235.96 275.37 235.28V232.9H271.34V231.98H275.35V230.12H276.32V231.99H279.99V232.91H276.34Z" fill="#8C5014"/>
<path d="M314.54 238.01L315.31 236.96C315.9 237.55 316.64 238.07 317.72 238.07C318.88 238.07 319.76 237.24 319.76 235.87C319.76 234.5 318.98 233.71 317.8 233.71C317.14 233.71 316.75 233.91 316.15 234.3L315.37 233.78L315.68 228.89H320.9V230.25H317.08L316.84 232.9C317.27 232.68 317.69 232.54 318.25 232.54C319.97 232.54 321.39 233.56 321.39 235.82C321.39 238.08 319.72 239.39 317.92 239.39C316.3 239.39 315.27 238.73 314.54 238.02V238.01Z" fill="#8C5014"/>
<path d="M329.3 232.91V234.75C330.08 234.29 330.73 233.8 331.22 233.3L332.13 233.86C331.36 234.58 330.39 235.25 329.32 235.84L329.34 238.08C329.34 238.7 329.19 238.99 328.8 239.14C328.39 239.3 327.74 239.33 326.79 239.33C326.73 239.05 326.57 238.62 326.42 238.35C327.13 238.38 327.86 238.37 328.07 238.35C328.29 238.35 328.36 238.28 328.35 238.08V236.33C327.12 236.92 325.79 237.4 324.47 237.75C324.37 237.51 324.12 237.11 323.96 236.89C325.46 236.53 327 235.96 328.33 235.28V232.9H324.3V231.98H328.31V230.12H329.28V231.99H332.95V232.91H329.3Z" fill="#8C5014"/>
<path d="M72.25 134.43C71.34 134.43 70.54 134.24 69.83 133.86C69.12 133.48 68.56 132.96 68.16 132.29C67.75 131.62 67.55 130.87 67.55 130.03V123.12H69.97V129.89C69.97 130.34 70.07 130.74 70.27 131.1C70.47 131.46 70.75 131.74 71.09 131.96C71.44 132.17 71.82 132.28 72.25 132.28C72.68 132.28 73.08 132.17 73.44 131.96C73.8 131.75 74.08 131.46 74.29 131.1C74.5 130.74 74.6 130.34 74.6 129.89V123.12H76.94V130.03C76.94 130.87 76.74 131.63 76.33 132.29C75.92 132.96 75.37 133.48 74.66 133.86C73.95 134.24 73.15 134.43 72.25 134.43Z" fill="white"/>
<path d="M79.35 134.34V123.14H81.49L87.68 131.51H87.23C87.19 131.18 87.15 130.86 87.12 130.54C87.09 130.23 87.06 129.91 87.03 129.58C87 129.25 86.98 128.92 86.97 128.57C86.95 128.22 86.94 127.86 86.93 127.47C86.92 127.08 86.91 126.66 86.91 126.2V123.14H89.26V134.34H87.08L80.76 125.89L81.37 125.91C81.42 126.46 81.47 126.94 81.51 127.33C81.55 127.72 81.58 128.06 81.6 128.35C81.62 128.64 81.64 128.89 81.66 129.1C81.68 129.31 81.69 129.52 81.69 129.71C81.69 129.9 81.69 130.11 81.69 130.32V134.35H79.34L79.35 134.34Z" fill="white"/>
<path d="M91.5 134.34V132.28H93.37V125.21H91.5V123.15H97.64V125.21H95.77V132.28H97.64V134.34H91.5Z" fill="white"/>
<path d="M103.5 134.5C102.81 134.5 102.17 134.41 101.6 134.24C101.03 134.07 100.52 133.82 100.08 133.49C99.64 133.16 99.24 132.76 98.89 132.29L100.39 130.58C100.91 131.31 101.43 131.8 101.95 132.06C102.47 132.32 103.03 132.45 103.64 132.45C103.97 132.45 104.27 132.41 104.53 132.31C104.79 132.22 105 132.09 105.15 131.92C105.3 131.75 105.37 131.55 105.37 131.31C105.37 131.14 105.33 130.98 105.26 130.84C105.19 130.7 105.08 130.57 104.94 130.46C104.8 130.35 104.64 130.25 104.44 130.16C104.25 130.07 104.03 129.99 103.8 129.92C103.56 129.85 103.31 129.79 103.03 129.75C102.43 129.61 101.91 129.44 101.46 129.25C101.01 129.05 100.64 128.81 100.34 128.51C100.04 128.21 99.82 127.88 99.68 127.51C99.54 127.14 99.46 126.72 99.46 126.25C99.46 125.78 99.57 125.32 99.78 124.91C99.99 124.5 100.29 124.14 100.67 123.85C101.05 123.55 101.49 123.32 101.98 123.16C102.48 123 103 122.92 103.56 122.92C104.24 122.92 104.84 123 105.35 123.15C105.86 123.3 106.31 123.53 106.69 123.81C107.07 124.1 107.39 124.45 107.64 124.87L106.12 126.34C105.9 126.04 105.65 125.79 105.39 125.59C105.13 125.39 104.85 125.24 104.54 125.13C104.24 125.03 103.92 124.98 103.6 124.98C103.25 124.98 102.94 125.03 102.69 125.12C102.43 125.21 102.23 125.34 102.09 125.51C101.95 125.68 101.87 125.89 101.87 126.13C101.87 126.32 101.92 126.49 102.01 126.64C102.1 126.79 102.24 126.92 102.43 127.03C102.61 127.14 102.83 127.24 103.09 127.33C103.35 127.42 103.63 127.49 103.94 127.55C104.53 127.67 105.06 127.82 105.52 128.01C105.99 128.2 106.39 128.43 106.73 128.71C107.07 128.99 107.32 129.3 107.51 129.67C107.7 130.04 107.78 130.45 107.78 130.91C107.78 131.67 107.6 132.31 107.24 132.85C106.88 133.38 106.37 133.79 105.74 134.07C105.1 134.35 104.35 134.49 103.5 134.49V134.5Z" fill="white"/>
<path d="M109.56 134.34V123.14H117.13V125.25H111.9V132.23H117.24V134.34H109.56ZM110.68 129.65V127.6H116.36V129.65H110.68Z" fill="white"/>
<path d="M117.98 134.34L122.25 128.24L124.07 129.5L120.76 134.33H117.98V134.34ZM125.98 134.34L122.51 129.32L118.06 123.14H121L124.39 128.1L128.92 134.34H125.98ZM124.65 129.14L122.84 127.92L125.98 123.14H128.76L124.65 129.14Z" fill="white"/>
<path d="M66.51 143.28V142.08H69.87V143.28H66.51ZM67.3 147.24V141.58C67.3 141.25 67.37 140.96 67.52 140.69C67.67 140.42 67.87 140.21 68.12 140.06C68.38 139.91 68.68 139.83 69.03 139.83C69.26 139.83 69.48 139.87 69.69 139.95C69.9 140.03 70.07 140.13 70.22 140.26L69.8 141.3C69.71 141.25 69.62 141.2 69.53 141.16C69.44 141.12 69.36 141.11 69.29 141.11C69.16 141.11 69.06 141.13 68.97 141.17C68.88 141.21 68.82 141.28 68.79 141.36C68.75 141.44 68.73 141.55 68.73 141.67V147.23H67.3V147.24Z" fill="white"/>
<path d="M72.83 147.34C72.29 147.34 71.81 147.22 71.39 146.99C70.97 146.76 70.63 146.43 70.39 146.01C70.15 145.6 70.02 145.12 70.02 144.59C70.02 144.06 70.14 143.59 70.39 143.17C70.64 142.75 70.97 142.44 71.39 142.19C71.81 141.95 72.3 141.83 72.83 141.83C73.36 141.83 73.84 141.95 74.27 142.19C74.69 142.43 75.02 142.75 75.27 143.17C75.51 143.58 75.63 144.05 75.63 144.59C75.63 145.13 75.51 145.6 75.27 146.01C75.03 146.42 74.7 146.75 74.27 146.99C73.84 147.23 73.37 147.34 72.83 147.34ZM72.83 146.1C73.09 146.1 73.32 146.04 73.53 145.91C73.74 145.78 73.9 145.6 74.01 145.37C74.12 145.14 74.18 144.88 74.18 144.6C74.18 144.32 74.12 144.04 74.01 143.81C73.9 143.58 73.73 143.4 73.53 143.27C73.32 143.14 73.09 143.08 72.83 143.08C72.57 143.08 72.33 143.15 72.12 143.28C71.91 143.41 71.75 143.59 71.63 143.82C71.51 144.05 71.45 144.31 71.46 144.6C71.46 144.89 71.51 145.14 71.63 145.37C71.75 145.6 71.91 145.78 72.12 145.91C72.33 146.04 72.56 146.1 72.83 146.1Z" fill="white"/>
<path d="M76.44 147.24V141.95H77.81L77.86 143.65L77.62 143.3C77.7 143.03 77.83 142.78 78.01 142.55C78.19 142.33 78.4 142.15 78.65 142.03C78.9 141.91 79.15 141.84 79.41 141.84C79.52 141.84 79.63 141.84 79.74 141.87C79.85 141.89 79.94 141.91 80.01 141.94L79.63 143.5C79.55 143.46 79.45 143.43 79.34 143.4C79.23 143.37 79.11 143.36 78.99 143.36C78.83 143.36 78.68 143.39 78.54 143.44C78.4 143.5 78.29 143.58 78.19 143.68C78.09 143.78 78.01 143.91 77.95 144.04C77.89 144.18 77.87 144.33 77.87 144.5V147.24H76.44Z" fill="white"/>
<path d="M83.59 147.24V140.24H84.96L87.51 144.39H86.61L89.19 140.24H90.5V147.24H89.03V144.84C89.03 144.24 89.04 143.7 89.07 143.22C89.1 142.74 89.15 142.26 89.23 141.79L89.41 142.26L87.36 145.44H86.7L84.69 142.28L84.86 141.79C84.93 142.24 84.98 142.7 85.02 143.17C85.05 143.64 85.06 144.2 85.06 144.85V147.25H83.59V147.24Z" fill="white"/>
<path d="M94.33 147.34C93.79 147.34 93.31 147.22 92.88 146.99C92.46 146.75 92.12 146.43 91.88 146.01C91.64 145.6 91.51 145.12 91.51 144.59C91.51 144.06 91.63 143.59 91.88 143.17C92.12 142.76 92.46 142.44 92.88 142.19C93.3 141.95 93.79 141.83 94.33 141.83C94.87 141.83 95.34 141.95 95.77 142.19C96.19 142.43 96.52 142.75 96.76 143.17C97 143.59 97.12 144.05 97.12 144.59C97.12 145.13 97 145.6 96.76 146.01C96.52 146.42 96.19 146.75 95.77 146.99C95.35 147.23 94.87 147.34 94.33 147.34ZM94.33 146.1C94.59 146.1 94.82 146.04 95.03 145.91C95.24 145.78 95.4 145.6 95.52 145.37C95.64 145.14 95.69 144.88 95.69 144.6C95.69 144.32 95.63 144.04 95.52 143.81C95.4 143.58 95.24 143.4 95.03 143.27C94.82 143.14 94.59 143.08 94.33 143.08C94.07 143.08 93.83 143.15 93.62 143.28C93.41 143.41 93.25 143.59 93.13 143.82C93.01 144.05 92.95 144.31 92.96 144.6C92.96 144.89 93.01 145.14 93.13 145.37C93.25 145.6 93.41 145.78 93.62 145.91C93.83 146.04 94.06 146.1 94.33 146.1Z" fill="white"/>
<path d="M97.93 147.24V141.95H99.3L99.33 142.96L99.12 143C99.19 142.83 99.29 142.67 99.41 142.53C99.53 142.39 99.67 142.27 99.83 142.17C99.99 142.07 100.16 141.99 100.34 141.93C100.52 141.87 100.7 141.85 100.88 141.85C101.15 141.85 101.4 141.89 101.62 141.98C101.84 142.07 102.03 142.2 102.18 142.38C102.33 142.56 102.45 142.8 102.54 143.11L102.32 143.09L102.39 142.93C102.48 142.77 102.59 142.62 102.72 142.49C102.85 142.36 103 142.25 103.17 142.15C103.34 142.05 103.51 141.98 103.69 141.92C103.87 141.87 104.05 141.84 104.22 141.84C104.63 141.84 104.98 141.92 105.25 142.09C105.52 142.25 105.73 142.5 105.87 142.82C106.01 143.15 106.08 143.55 106.08 144.02V147.23H104.66V144.12C104.66 143.88 104.63 143.68 104.56 143.53C104.49 143.38 104.4 143.26 104.27 143.19C104.14 143.12 103.98 143.07 103.78 143.07C103.63 143.07 103.49 143.1 103.36 143.15C103.23 143.2 103.12 143.27 103.02 143.36C102.92 143.45 102.85 143.55 102.79 143.67C102.73 143.79 102.71 143.92 102.71 144.07V147.23H101.29V144.11C101.29 143.89 101.25 143.7 101.19 143.55C101.12 143.39 101.02 143.28 100.9 143.2C100.77 143.12 100.62 143.08 100.43 143.08C100.28 143.08 100.14 143.11 100.01 143.16C99.88 143.21 99.77 143.28 99.68 143.37C99.59 143.46 99.51 143.56 99.46 143.68C99.41 143.8 99.37 143.93 99.37 144.07V147.24H97.95H97.93Z" fill="white"/>
<path d="M108.96 147.34C108.47 147.34 108.03 147.26 107.64 147.09C107.25 146.92 106.95 146.7 106.72 146.42L107.6 145.66C107.81 145.88 108.04 146.04 108.29 146.14C108.54 146.24 108.8 146.29 109.05 146.29C109.15 146.29 109.24 146.28 109.32 146.25C109.4 146.23 109.48 146.19 109.53 146.15C109.59 146.11 109.64 146.05 109.67 145.99C109.7 145.93 109.71 145.86 109.71 145.78C109.71 145.63 109.65 145.52 109.53 145.43C109.46 145.4 109.36 145.36 109.22 145.31C109.08 145.26 108.9 145.21 108.68 145.14C108.34 145.05 108.05 144.95 107.81 144.84C107.57 144.72 107.39 144.59 107.25 144.44C107.13 144.3 107.04 144.15 106.97 143.98C106.91 143.82 106.88 143.63 106.88 143.44C106.88 143.2 106.93 142.98 107.04 142.78C107.15 142.58 107.29 142.42 107.48 142.28C107.67 142.14 107.89 142.03 108.14 141.95C108.39 141.87 108.65 141.84 108.92 141.84C109.19 141.84 109.46 141.87 109.72 141.94C109.98 142.01 110.22 142.1 110.45 142.22C110.67 142.34 110.87 142.49 111.03 142.66L110.27 143.5C110.15 143.39 110.02 143.28 109.87 143.19C109.72 143.1 109.57 143.02 109.41 142.97C109.25 142.92 109.11 142.89 108.98 142.89C108.87 142.89 108.77 142.9 108.68 142.92C108.59 142.94 108.51 142.97 108.45 143.01C108.39 143.05 108.35 143.1 108.32 143.16C108.29 143.22 108.28 143.29 108.28 143.37C108.28 143.45 108.3 143.51 108.33 143.58C108.37 143.65 108.42 143.7 108.49 143.75C108.56 143.79 108.67 143.84 108.82 143.89C108.96 143.94 109.16 144 109.4 144.07C109.72 144.16 109.99 144.25 110.22 144.36C110.44 144.47 110.62 144.59 110.76 144.73C110.87 144.85 110.96 144.99 111.01 145.14C111.06 145.29 111.09 145.46 111.09 145.65C111.09 145.98 111 146.27 110.81 146.53C110.63 146.79 110.37 146.99 110.05 147.13C109.73 147.27 109.37 147.35 108.97 147.35L108.96 147.34Z" fill="white"/>
<path d="M116.63 147.34C116.19 147.34 115.79 147.22 115.44 146.98C115.09 146.74 114.81 146.41 114.6 146C114.39 145.59 114.29 145.11 114.29 144.58C114.29 144.05 114.4 143.58 114.61 143.16C114.82 142.75 115.11 142.43 115.46 142.19C115.82 141.95 116.23 141.84 116.69 141.84C116.95 141.84 117.19 141.88 117.4 141.95C117.62 142.03 117.81 142.13 117.97 142.26C118.13 142.39 118.27 142.55 118.39 142.72C118.5 142.89 118.58 143.08 118.63 143.28L118.33 143.23V141.94H119.74V147.23H118.31V145.96L118.63 145.93C118.58 146.12 118.49 146.29 118.37 146.46C118.25 146.63 118.1 146.77 117.92 146.9C117.74 147.03 117.54 147.13 117.33 147.21C117.11 147.29 116.88 147.33 116.63 147.33V147.34ZM117.02 146.11C117.29 146.11 117.52 146.05 117.72 145.92C117.92 145.79 118.08 145.61 118.19 145.38C118.3 145.15 118.36 144.88 118.36 144.57C118.36 144.26 118.31 144.01 118.19 143.78C118.08 143.55 117.93 143.38 117.72 143.25C117.52 143.12 117.29 143.05 117.02 143.05C116.75 143.05 116.53 143.11 116.33 143.25C116.13 143.38 115.98 143.56 115.87 143.78C115.76 144.01 115.7 144.27 115.7 144.57C115.7 144.87 115.76 145.15 115.87 145.38C115.98 145.61 116.14 145.79 116.33 145.92C116.53 146.05 116.76 146.11 117.02 146.11Z" fill="white"/>
<path d="M120.91 147.24V141.95H122.27L122.31 143.03L122.03 143.15C122.1 142.91 122.24 142.69 122.42 142.49C122.61 142.29 122.84 142.14 123.11 142.01C123.38 141.89 123.66 141.83 123.95 141.83C124.35 141.83 124.68 141.91 124.95 142.07C125.22 142.23 125.42 142.47 125.56 142.8C125.7 143.12 125.77 143.52 125.77 143.99V147.23H124.35V144.1C124.35 143.86 124.32 143.66 124.25 143.5C124.18 143.34 124.08 143.22 123.95 143.15C123.81 143.07 123.64 143.04 123.45 143.05C123.29 143.05 123.14 143.08 123 143.13C122.86 143.18 122.75 143.25 122.65 143.34C122.55 143.43 122.48 143.54 122.42 143.66C122.36 143.78 122.34 143.91 122.34 144.05V147.23H120.92L120.91 147.24Z" fill="white"/>
<path d="M128.95 147.34C128.49 147.34 128.08 147.22 127.71 146.99C127.34 146.76 127.05 146.43 126.84 146.02C126.63 145.61 126.53 145.14 126.53 144.6C126.53 144.06 126.63 143.6 126.84 143.19C127.05 142.78 127.34 142.45 127.7 142.21C128.06 141.97 128.48 141.85 128.95 141.85C129.2 141.85 129.43 141.89 129.66 141.96C129.89 142.04 130.1 142.14 130.28 142.27C130.46 142.4 130.61 142.55 130.72 142.72C130.83 142.89 130.9 143.05 130.91 143.24L130.55 143.3V139.85H131.97V147.25H130.63L130.57 146.03L130.85 146.06C130.84 146.23 130.78 146.39 130.67 146.54C130.56 146.69 130.42 146.83 130.25 146.96C130.08 147.09 129.87 147.18 129.65 147.25C129.43 147.32 129.19 147.35 128.94 147.35L128.95 147.34ZM129.27 146.16C129.54 146.16 129.77 146.09 129.97 145.96C130.17 145.83 130.33 145.64 130.44 145.41C130.55 145.18 130.61 144.9 130.61 144.59C130.61 144.28 130.55 144.01 130.44 143.78C130.33 143.54 130.17 143.36 129.97 143.23C129.77 143.1 129.54 143.04 129.27 143.04C129 143.04 128.77 143.1 128.57 143.23C128.37 143.36 128.22 143.54 128.11 143.78C128 144.02 127.95 144.29 127.95 144.59C127.95 144.89 128 145.18 128.11 145.41C128.22 145.64 128.37 145.83 128.57 145.96C128.77 146.09 129 146.16 129.27 146.16Z" fill="white"/>
<path d="M136.13 147.24V140.24H139C139.51 140.24 139.98 140.32 140.4 140.49C140.82 140.66 141.18 140.9 141.48 141.21C141.78 141.52 142.02 141.89 142.18 142.31C142.34 142.74 142.42 143.21 142.42 143.73C142.42 144.25 142.34 144.71 142.18 145.15C142.02 145.58 141.79 145.95 141.49 146.26C141.19 146.57 140.83 146.81 140.41 146.98C139.99 147.15 139.52 147.23 139.01 147.23H136.14L136.13 147.24ZM137.63 146.15L137.47 145.89H138.95C139.25 145.89 139.52 145.84 139.76 145.74C140 145.64 140.2 145.49 140.37 145.31C140.54 145.13 140.67 144.9 140.76 144.64C140.85 144.38 140.89 144.08 140.89 143.75C140.89 143.42 140.85 143.13 140.76 142.87C140.67 142.61 140.55 142.38 140.37 142.19C140.2 142 139.99 141.86 139.76 141.75C139.52 141.65 139.25 141.6 138.95 141.6H137.44L137.63 141.36V146.16V146.15Z" fill="white"/>
<path d="M145.3 147.34C144.86 147.34 144.46 147.22 144.11 146.98C143.76 146.74 143.48 146.41 143.27 146C143.06 145.59 142.96 145.11 142.96 144.58C142.96 144.05 143.07 143.58 143.27 143.16C143.48 142.75 143.77 142.43 144.13 142.19C144.49 141.95 144.9 141.84 145.36 141.84C145.62 141.84 145.86 141.88 146.07 141.95C146.29 142.03 146.48 142.13 146.64 142.26C146.8 142.39 146.94 142.55 147.05 142.72C147.16 142.89 147.24 143.08 147.29 143.28L146.99 143.23V141.94H148.4V147.23H146.97V145.96L147.29 145.93C147.24 146.12 147.15 146.29 147.03 146.46C146.91 146.63 146.76 146.77 146.58 146.9C146.4 147.03 146.2 147.13 145.99 147.21C145.78 147.29 145.54 147.33 145.29 147.33L145.3 147.34ZM145.69 146.11C145.96 146.11 146.19 146.05 146.39 145.92C146.59 145.79 146.75 145.61 146.85 145.38C146.96 145.15 147.02 144.88 147.02 144.57C147.02 144.26 146.96 144.01 146.85 143.78C146.74 143.55 146.59 143.38 146.39 143.25C146.19 143.12 145.96 143.05 145.69 143.05C145.42 143.05 145.2 143.11 145 143.25C144.8 143.38 144.65 143.56 144.54 143.78C144.43 144.01 144.37 144.27 144.37 144.57C144.37 144.87 144.43 145.15 144.54 145.38C144.65 145.61 144.81 145.79 145 145.92C145.2 146.05 145.42 146.11 145.69 146.11Z" fill="white"/>
<path d="M151.65 147.34C151.19 147.34 150.78 147.22 150.41 146.99C150.04 146.75 149.76 146.43 149.54 146.02C149.33 145.61 149.23 145.14 149.23 144.6C149.23 144.06 149.34 143.6 149.54 143.19C149.75 142.78 150.04 142.45 150.4 142.21C150.76 141.97 151.18 141.85 151.64 141.85C151.89 141.85 152.13 141.89 152.35 141.96C152.58 142.04 152.79 142.14 152.97 142.27C153.15 142.4 153.3 142.55 153.41 142.72C153.52 142.89 153.59 143.05 153.6 143.24L153.24 143.3V139.85H154.66V147.25H153.32L153.26 146.03L153.54 146.06C153.53 146.23 153.47 146.39 153.36 146.54C153.25 146.69 153.11 146.83 152.93 146.96C152.75 147.08 152.55 147.18 152.33 147.25C152.11 147.32 151.87 147.35 151.62 147.35L151.65 147.34ZM151.97 146.16C152.24 146.16 152.47 146.09 152.67 145.96C152.87 145.83 153.03 145.64 153.14 145.41C153.25 145.18 153.31 144.9 153.31 144.59C153.31 144.28 153.25 144.01 153.14 143.78C153.03 143.54 152.87 143.36 152.67 143.23C152.47 143.1 152.24 143.04 151.97 143.04C151.7 143.04 151.47 143.1 151.27 143.23C151.07 143.36 150.92 143.54 150.81 143.78C150.7 144.02 150.64 144.29 150.64 144.59C150.64 144.89 150.69 145.18 150.81 145.41C150.93 145.64 151.07 145.83 151.27 145.96C151.47 146.09 151.7 146.16 151.97 146.16Z" fill="white"/>
<path d="M157.59 147.34C157.1 147.34 156.66 147.26 156.27 147.09C155.88 146.92 155.58 146.7 155.35 146.42L156.23 145.66C156.44 145.88 156.67 146.04 156.92 146.14C157.17 146.24 157.43 146.29 157.68 146.29C157.78 146.29 157.87 146.28 157.95 146.25C158.03 146.23 158.11 146.19 158.16 146.15C158.22 146.11 158.27 146.05 158.3 145.99C158.33 145.93 158.34 145.86 158.34 145.78C158.34 145.63 158.28 145.52 158.16 145.43C158.09 145.4 157.99 145.36 157.85 145.31C157.71 145.26 157.53 145.21 157.31 145.14C156.97 145.05 156.68 144.95 156.44 144.84C156.2 144.72 156.02 144.59 155.88 144.44C155.76 144.3 155.67 144.15 155.6 143.98C155.54 143.82 155.51 143.63 155.51 143.44C155.51 143.2 155.56 142.98 155.67 142.78C155.78 142.58 155.92 142.42 156.11 142.28C156.3 142.14 156.52 142.03 156.77 141.95C157.02 141.87 157.28 141.84 157.55 141.84C157.82 141.84 158.09 141.87 158.35 141.94C158.61 142.01 158.85 142.1 159.08 142.22C159.3 142.34 159.5 142.49 159.66 142.66L158.9 143.5C158.78 143.39 158.65 143.28 158.5 143.19C158.35 143.1 158.2 143.02 158.04 142.97C157.88 142.92 157.74 142.89 157.61 142.89C157.5 142.89 157.4 142.9 157.31 142.92C157.22 142.94 157.14 142.97 157.08 143.01C157.02 143.05 156.98 143.1 156.95 143.16C156.92 143.22 156.91 143.29 156.91 143.37C156.91 143.45 156.93 143.51 156.96 143.58C157 143.65 157.05 143.7 157.12 143.75C157.19 143.79 157.3 143.84 157.45 143.89C157.59 143.94 157.79 144 158.03 144.07C158.35 144.16 158.62 144.25 158.85 144.36C159.07 144.47 159.25 144.59 159.39 144.73C159.5 144.85 159.59 144.99 159.64 145.14C159.69 145.29 159.72 145.46 159.72 145.65C159.72 145.98 159.63 146.27 159.44 146.53C159.26 146.79 159 146.99 158.68 147.13C158.36 147.27 158 147.35 157.6 147.35L157.59 147.34Z" fill="white"/>
<path d="M78.98 159.69V160.66H70.18V161.58C70.18 163.19 69.98 165.62 68.9 167.23C68.72 167.04 68.27 166.64 68.05 166.52C69.01 165.04 69.12 162.99 69.12 161.58V159.69H71.36C71.26 159.28 71.05 158.73 70.82 158.3L71.25 158.19H68.97V157.22H73.1V156.24H74.22V157.22H78.39V158.19H76.69L76.85 158.23C76.55 158.75 76.25 159.29 76 159.69H79H78.98ZM75.16 166.07H78.91V167.02H70.47V166.07H74.07V164.75H71.45V163.89H74.07V162.79H72.02C71.77 163.2 71.48 163.56 71.2 163.85C71 163.69 70.56 163.43 70.31 163.31C70.97 162.72 71.52 161.81 71.83 160.9L72.83 161.13C72.73 161.39 72.63 161.66 72.51 161.91H74.07V160.93H75.16V161.91H78.23V162.8H75.16V163.9H77.91V164.76H75.16V166.08V166.07ZM71.9 158.19C72.15 158.63 72.38 159.19 72.45 159.57L72.02 159.69H75.25L74.95 159.59C75.13 159.19 75.36 158.64 75.5 158.19H71.9Z" fill="white"/>
<path d="M83.72 159.08C83.44 159.58 83.11 160.09 82.75 160.58V167.28H81.71V161.82C81.33 162.24 80.93 162.62 80.53 162.94C80.42 162.71 80.1 162.16 79.92 161.92C80.97 161.15 82.07 159.94 82.74 158.73L83.72 159.08ZM83.48 156.63C82.76 157.66 81.66 158.79 80.64 159.5C80.51 159.28 80.22 158.89 80.04 158.7C80.94 158.08 81.97 157.08 82.48 156.25L83.49 156.63H83.48ZM90.08 162.69C89.65 163.75 88.98 164.59 88.14 165.27C89.05 165.76 90.13 166.12 91.29 166.33C91.06 166.56 90.76 167 90.62 167.29C89.35 167.01 88.21 166.55 87.24 165.91C86.18 166.56 84.96 167.01 83.68 167.3C83.57 167.02 83.34 166.57 83.14 166.35C84.29 166.15 85.41 165.77 86.37 165.25C85.91 164.87 85.52 164.42 85.17 163.94C84.76 164.3 84.33 164.6 83.9 164.86C83.76 164.64 83.4 164.21 83.16 164.03C84.25 163.47 85.31 162.6 86 161.61C85.04 161.63 84.15 161.66 83.41 161.68L83.31 160.67C83.84 160.67 84.46 160.66 85.16 160.65C85.38 160.47 85.62 160.27 85.84 160.06C85.29 159.48 84.4 158.78 83.63 158.27L84.3 157.55C84.52 157.69 84.76 157.84 85 158.01C85.5 157.47 86.06 156.76 86.4 156.22L87.37 156.72C86.84 157.34 86.24 158.03 85.72 158.54C86.07 158.8 86.38 159.07 86.63 159.32C87.4 158.58 88.13 157.8 88.67 157.11L89.67 157.66C88.76 158.62 87.62 159.72 86.55 160.61C87.43 160.6 88.35 160.59 89.28 160.56C89.03 160.22 88.76 159.91 88.51 159.62L89.39 159.15C90.11 159.93 90.95 161.01 91.28 161.74L90.36 162.28C90.25 162.04 90.08 161.75 89.89 161.44C89 161.48 88.09 161.51 87.23 161.54C87.05 161.83 86.86 162.12 86.64 162.39H89.21L89.4 162.35L90.08 162.66V162.69ZM85.87 163.3C86.22 163.82 86.69 164.28 87.23 164.69C87.79 164.28 88.26 163.8 88.61 163.26H85.9L85.88 163.3H85.87Z" fill="white"/>
<path d="M97.38 165.58C97.8 165.54 98.15 165.48 98.43 165.41C99.95 165.06 101.31 163.96 101.31 162.04C101.31 160.31 100.28 158.96 98.46 158.73C98.29 159.8 98.08 160.95 97.75 162.06C97.03 164.48 96.05 165.84 94.86 165.84C93.67 165.84 92.61 164.51 92.61 162.53C92.61 159.89 94.95 157.6 97.92 157.6C100.89 157.6 102.59 159.59 102.59 162.09C102.59 164.59 100.99 166.3 98.09 166.71L97.38 165.58ZM96.54 161.81C96.84 160.87 97.07 159.8 97.19 158.75C95.06 159.1 93.81 160.96 93.81 162.42C93.81 163.79 94.42 164.41 94.9 164.41C95.42 164.41 95.99 163.64 96.54 161.81Z" fill="white"/>
<path d="M114.87 158.32H112.08C113.06 158.99 114.23 159.89 114.83 160.56L113.87 161.21C113.68 160.98 113.41 160.71 113.1 160.42C110.11 160.54 106.96 160.62 104.87 160.65L104.83 159.63C105.32 159.63 105.87 159.62 106.47 159.62C106.77 159.21 107.08 158.74 107.32 158.32H104.38V157.34H109.03V156.24H110.17V157.34H114.86V158.32H114.87ZM113.27 166.14C113.27 166.69 113.13 166.97 112.71 167.1C112.28 167.24 111.63 167.26 110.67 167.26C110.61 166.98 110.47 166.6 110.32 166.35C110.97 166.39 111.69 166.37 111.87 166.36C112.09 166.36 112.15 166.3 112.15 166.13V165.31H107.16V167.25H106.04V161.27H113.27V166.14ZM107.16 162.19V162.95H112.15V162.19H107.16ZM112.14 164.51V163.74H107.15V164.51H112.14ZM108.74 158.32C108.42 158.75 108.06 159.2 107.72 159.59C109.05 159.58 110.54 159.54 112.03 159.52C111.67 159.23 111.31 158.97 110.97 158.73L111.61 158.32H108.74Z" fill="white"/>
<path d="M120.56 163.17C120.31 165.26 119.66 166.6 116.71 167.32C116.6 167.03 116.3 166.56 116.08 166.34C118.69 165.8 119.16 164.78 119.37 163.17H120.57H120.56ZM118.42 156.58V163.01H117.34V156.58H118.42ZM126.02 156.76V162.84H120.1V156.76H126.02ZM121.16 159.33H124.88V157.73H121.16V159.33ZM121.16 161.86H124.88V160.23H121.16V161.86ZM123.64 163.15V165.74C123.64 166.09 123.7 166.15 124.17 166.15H125.55C125.97 166.15 126.04 165.93 126.09 164.49C126.33 164.68 126.81 164.85 127.13 164.93C127 166.74 126.69 167.2 125.64 167.2H124.01C122.8 167.2 122.5 166.85 122.5 165.75V163.15H123.64Z" fill="white"/>
<path d="M131 157.24C130.92 157.47 130.8 157.94 130.75 158.15C130.55 159.12 130.16 161.35 130.16 162.62C130.16 163.04 130.18 163.44 130.24 163.87C130.42 163.39 130.66 162.81 130.84 162.38L131.46 162.86C131.14 163.76 130.72 165.03 130.61 165.63C130.57 165.79 130.54 166.04 130.55 166.17C130.55 166.29 130.56 166.47 130.57 166.61L129.49 166.68C129.25 165.85 129.03 164.45 129.03 162.84C129.03 161.07 129.41 159.05 129.55 158.1C129.6 157.8 129.65 157.43 129.66 157.12L130.99 157.23L131 157.24ZM133.73 163.05C133.63 163.46 133.59 163.78 133.59 164.11C133.59 164.65 133.99 165.07 135.42 165.07C136.49 165.07 137.39 164.97 138.38 164.76L138.4 166.03C137.66 166.17 136.67 166.27 135.39 166.27C133.38 166.27 132.44 165.57 132.44 164.42C132.44 163.95 132.54 163.47 132.64 162.96L133.72 163.06L133.73 163.05ZM138.04 158.09V159.31C136.69 159.44 134.44 159.45 133.06 159.31V158.1C134.42 158.3 136.8 158.26 138.04 158.09Z" fill="white"/>
<path d="M149.72 160.78V162.06H151.03V163.09H149.72V165.94C149.72 166.54 149.59 166.86 149.18 167.06C148.76 167.22 148.1 167.24 147.2 167.24C147.15 166.92 147.01 166.45 146.85 166.12C147.52 166.14 148.17 166.14 148.36 166.13C148.55 166.13 148.61 166.08 148.61 165.91V163.08H144.44V162.44L143.29 162.8V167.23H142.26V163.13C141.58 163.33 140.93 163.53 140.37 163.69L140.08 162.62C140.68 162.48 141.43 162.27 142.26 162.03V159.62H141.29C141.15 160.24 140.99 160.81 140.8 161.26C140.63 161.13 140.21 160.88 140 160.76C140.41 159.79 140.63 158.28 140.74 156.85L141.7 157.02C141.64 157.54 141.58 158.06 141.48 158.57H142.26V156.23H143.29V158.57H144.41V159.63H143.29V161.75L144.55 161.38L144.65 162.05H148.62V160.77H144.22V159.74H147.17V158.43H144.93V157.42H147.17V156.22H148.27V157.42H150.58V158.43H148.27V159.74H151.12V160.77H149.72V160.78ZM145.82 163.29C146.38 163.83 147.02 164.61 147.29 165.14L146.4 165.72C146.15 165.19 145.52 164.38 144.97 163.81L145.81 163.29H145.82Z" fill="white"/>
<path d="M156.36 156.79C156 157.63 155.57 158.46 155.07 159.25V167.24H153.95V160.82C153.51 161.38 153.03 161.9 152.56 162.33C152.44 162.04 152.09 161.44 151.89 161.17C153.22 160.05 154.5 158.27 155.27 156.43L156.36 156.79ZM161.37 166.04C161.99 166.04 162.08 165.62 162.17 163.91C162.45 164.11 162.9 164.32 163.21 164.39C163.07 166.38 162.74 167.09 161.44 167.09H159.17C157.81 167.09 157.42 166.68 157.42 165.23V156.54H158.54V160.83C159.79 160.13 161.05 159.27 161.87 158.52L162.67 159.49C161.53 160.37 159.97 161.23 158.53 161.97V165.24C158.53 165.92 158.65 166.04 159.27 166.04H161.36H161.37Z" fill="white"/>
<path d="M167.89 156.93C167.82 157.36 167.78 157.87 167.76 158.29C167.71 159.61 167.62 162.34 167.62 164C167.62 165.25 168.41 165.68 169.43 165.68C171.52 165.68 172.75 164.5 173.6 163.23L174.45 164.27C173.66 165.4 172.06 166.93 169.4 166.93C167.59 166.93 166.38 166.15 166.38 164.18C166.38 162.49 166.5 159.43 166.5 158.28C166.5 157.79 166.46 157.31 166.38 156.91H167.89V156.93Z" fill="white"/>
<path d="M182.89 159.34C182.15 159.51 181.32 159.64 180.5 159.74C180.39 160.26 180.26 160.78 180.13 161.29C179.7 162.97 178.91 165.42 178.26 166.76L176.94 166.32C177.66 165.11 178.51 162.66 178.95 160.99C179.06 160.63 179.15 160.23 179.24 159.85C178.9 159.86 178.59 159.87 178.29 159.87C177.74 159.87 177.31 159.85 176.87 159.82L176.85 158.64C177.43 158.71 177.85 158.74 178.3 158.74C178.67 158.74 179.07 158.73 179.49 158.69C179.55 158.34 179.61 158.03 179.63 157.81C179.68 157.43 179.69 156.99 179.67 156.73L181.12 156.84C181.04 157.14 180.94 157.62 180.89 157.86L180.75 158.56C181.47 158.46 182.2 158.32 182.88 158.15V159.34H182.89ZM182.51 163.38C182.41 163.75 182.34 164.12 182.34 164.41C182.34 164.95 182.63 165.43 184.14 165.43C184.92 165.43 185.74 165.33 186.52 165.19L186.48 166.4C185.82 166.5 185.03 166.57 184.13 166.57C182.2 166.57 181.2 165.93 181.2 164.76C181.2 164.27 181.28 163.76 181.38 163.27L182.51 163.38ZM182.05 160.46C182.68 160.39 183.5 160.34 184.27 160.34C184.95 160.34 185.67 160.38 186.34 160.45L186.3 161.59C185.7 161.52 184.99 161.45 184.28 161.45C183.5 161.45 182.77 161.49 182.04 161.57V160.47L182.05 160.46Z" fill="white"/>
<path d="M78.93 172.2C78.82 172.33 78.63 172.56 78.53 172.7C78.01 173.58 76.88 175.1 75.59 176.01L74.59 175.21C75.63 174.6 76.69 173.41 77.04 172.73H70.46C69.99 172.73 69.57 172.77 69.06 172.8V171.47C69.5 171.53 70 171.58 70.46 171.58H77.16C77.44 171.58 77.98 171.54 78.17 171.5L78.93 172.21V172.2ZM74.08 173.8C74.08 176.93 73.9 179.23 70.75 180.85L69.65 179.95C70 179.83 70.42 179.64 70.8 179.36C72.52 178.26 72.79 176.75 72.79 174.75C72.79 174.43 72.78 174.14 72.72 173.79H74.09L74.08 173.8Z" fill="white"/>
<path d="M86.89 179.34C86.89 179.83 86.91 180.49 86.97 180.76H85.48C85.52 180.5 85.55 179.84 85.55 179.34V175.07C84.29 175.74 82.7 176.41 81.21 176.83L80.53 175.67C82.58 175.2 84.61 174.32 85.94 173.49C87.15 172.73 88.4 171.67 89.07 170.8L90.09 171.72C89.23 172.58 88.1 173.52 86.89 174.3V179.34Z" fill="white"/>
<path d="M101.66 174.4C101.91 174.4 102.37 174.38 102.67 174.34V175.58C102.39 175.56 101.97 175.54 101.66 175.54H98.58C98.53 176.81 98.29 177.87 97.84 178.74C97.41 179.54 96.5 180.44 95.45 180.97L94.35 180.15C95.24 179.79 96.09 179.11 96.57 178.36C97.09 177.56 97.24 176.61 97.29 175.53H93.82C93.46 175.53 93.06 175.54 92.73 175.57V174.33C93.07 174.37 93.45 174.39 93.82 174.39H101.66V174.4ZM95.31 172.49C94.91 172.49 94.47 172.5 94.13 172.53V171.29C94.49 171.34 94.91 171.37 95.31 171.37H100.14C100.51 171.37 100.96 171.35 101.34 171.29V172.53C100.96 172.51 100.51 172.49 100.14 172.49H95.31Z" fill="white"/>
<path d="M113.66 180.78C113.5 180.36 113.29 179.83 113.04 179.28C111.13 179.51 107.29 179.93 105.74 180.07C105.44 180.11 105.04 180.17 104.69 180.21L104.47 178.82C104.84 178.82 105.31 178.82 105.67 178.8C105.81 178.79 105.98 178.79 106.16 178.78C106.83 177.07 107.97 173.49 108.31 172.27C108.48 171.69 108.53 171.37 108.57 171.02L110.07 171.33C109.94 171.65 109.78 172.01 109.61 172.54C109.25 173.68 108.16 177.07 107.56 178.66C109.19 178.52 111.22 178.29 112.5 178.12C112.04 177.21 111.55 176.33 111.13 175.78L112.29 175.28C113.13 176.54 114.41 178.93 114.93 180.21L113.66 180.79V180.78Z" fill="white"/>
<path d="M239.46 162.61H234.63V165.88C234.63 166.56 234.46 166.89 233.96 167.08C233.47 167.25 232.67 167.28 231.55 167.27C231.48 166.95 231.26 166.44 231.07 166.12C231.97 166.16 232.87 166.14 233.15 166.14C233.4 166.13 233.47 166.07 233.47 165.86V162.6H228.63V161.48H233.47V159.57H234.12C234.85 159.16 235.62 158.62 236.23 158.11H229.86V157.02H237.4L237.65 156.95L238.49 157.59C237.47 158.63 235.97 159.75 234.63 160.49V161.49H239.46V162.61Z" fill="white"/>
<path d="M244.21 156.61C243.89 157.45 243.48 158.31 243.02 159.1V167.24H241.93V160.81C241.61 161.25 241.27 161.66 240.93 162.02C240.82 161.74 240.5 161.14 240.32 160.88C241.45 159.76 242.51 158.03 243.16 156.26L244.2 156.6L244.21 156.61ZM246.87 164.46C246.28 165.5 245.36 166.55 244.54 167.22C244.34 167.02 243.9 166.68 243.65 166.51C244.49 165.92 245.31 165.01 245.81 164.12L246.86 164.46H246.87ZM251.54 162.46V163.55H243.82V162.46H245.55V159.76H244.11V158.69H245.55V156.36H246.64V158.69H248.7V156.34H249.79V158.69H251.42V159.76H249.79V162.46H251.54ZM246.63 162.46H248.69V159.76H246.63V162.46ZM249.36 164.15C250.14 164.92 251 165.95 251.42 166.66L250.48 167.26C250.08 166.53 249.23 165.44 248.45 164.65L249.35 164.16L249.36 164.15Z" fill="white"/>
<path d="M257.78 165.58C258.2 165.54 258.55 165.48 258.83 165.41C260.35 165.06 261.71 163.96 261.71 162.04C261.71 160.31 260.68 158.96 258.86 158.73C258.69 159.8 258.48 160.95 258.15 162.06C257.43 164.48 256.45 165.84 255.26 165.84C254.07 165.84 253.01 164.51 253.01 162.53C253.01 159.89 255.35 157.6 258.32 157.6C261.29 157.6 262.99 159.59 262.99 162.09C262.99 164.59 261.39 166.3 258.49 166.71L257.78 165.58ZM256.94 161.81C257.24 160.87 257.47 159.8 257.59 158.75C255.46 159.1 254.21 160.96 254.21 162.42C254.21 163.79 254.82 164.41 255.3 164.41C255.82 164.41 256.39 163.64 256.94 161.81Z" fill="white"/>
<path d="M274.74 160.34C274.24 161.89 273.53 163.24 272.65 164.39C273.06 165.41 273.53 166.03 274.03 166.03C274.34 166.03 274.49 165.42 274.56 163.87C274.82 164.13 275.22 164.39 275.52 164.49C275.34 166.6 274.93 167.16 273.95 167.16C273.07 167.16 272.38 166.49 271.84 165.36C271.16 166.08 270.4 166.69 269.57 167.19C269.4 166.95 269.01 166.48 268.75 166.28C269.75 165.73 270.63 165.03 271.36 164.18C270.93 162.82 270.65 161.11 270.51 159.24H266.67V160.69H269.68V161.12C269.62 163.72 269.56 164.75 269.31 165.09C269.09 165.34 268.87 165.44 268.54 165.47C268.24 165.52 267.7 165.52 267.12 165.49C267.1 165.17 266.99 164.73 266.82 164.45C267.31 164.5 267.78 164.51 267.97 164.51C268.14 164.51 268.26 164.47 268.34 164.37C268.47 164.2 268.54 163.52 268.58 161.71H266.66C266.65 163.41 266.44 165.81 265.39 167.36C265.2 167.13 264.71 166.74 264.45 166.59C265.41 165.15 265.49 163.09 265.49 161.54V158.15H270.42C270.38 157.53 270.36 156.88 270.36 156.24H271.54C271.53 156.89 271.54 157.52 271.58 158.15H273.9C273.43 157.75 272.65 157.24 272.02 156.89L272.69 156.21C273.4 156.58 274.3 157.13 274.77 157.54L274.19 158.15H275.41V159.24H271.64C271.76 160.67 271.95 161.96 272.23 163.03C272.81 162.14 273.25 161.15 273.6 160.04L274.73 160.32L274.74 160.34Z" fill="white"/>
<path d="M286.91 163.5C286.17 164.05 285.23 164.6 284.43 165.01C285.28 165.61 286.34 166.04 287.58 166.28C287.33 166.51 287.02 166.98 286.87 167.28C284.16 166.66 282.44 165.19 281.44 162.89H279.88V165.76L282.77 165.32L282.83 166.3C280.95 166.62 278.93 166.95 277.51 167.18L277.25 166.16C277.68 166.1 278.2 166.03 278.75 165.94V162.89H276.7V161.89H278.76V156.68H286.17V157.62H279.88V158.45H285.82V159.34H279.88V160.17H285.82V161.06H279.88V161.9H287.36V162.9H286L286.9 163.51L286.91 163.5ZM282.58 162.89C282.88 163.45 283.25 163.96 283.7 164.4C284.49 163.96 285.4 163.38 285.99 162.89H282.58Z" fill="white"/>
<path d="M292.12 159.08C291.84 159.58 291.51 160.09 291.15 160.58V167.28H290.11V161.82C289.73 162.24 289.33 162.62 288.93 162.94C288.82 162.71 288.5 162.16 288.32 161.92C289.38 161.15 290.47 159.94 291.14 158.73L292.12 159.08ZM291.88 156.63C291.16 157.66 290.06 158.79 289.04 159.5C288.91 159.28 288.62 158.89 288.44 158.7C289.34 158.08 290.37 157.08 290.87 156.25L291.88 156.63ZM298.48 162.69C298.05 163.75 297.38 164.59 296.54 165.27C297.45 165.76 298.53 166.12 299.69 166.33C299.46 166.56 299.16 167 299.02 167.29C297.75 167.01 296.61 166.55 295.64 165.91C294.59 166.56 293.36 167.01 292.08 167.3C291.97 167.02 291.74 166.57 291.54 166.35C292.69 166.15 293.81 165.77 294.77 165.25C294.31 164.87 293.92 164.42 293.57 163.94C293.16 164.3 292.73 164.6 292.3 164.86C292.16 164.64 291.8 164.21 291.56 164.03C292.65 163.47 293.71 162.6 294.4 161.61C293.44 161.63 292.55 161.66 291.81 161.68L291.71 160.67C292.24 160.67 292.86 160.66 293.56 160.65C293.78 160.47 294.02 160.27 294.24 160.06C293.69 159.48 292.8 158.78 292.03 158.27L292.7 157.55C292.92 157.69 293.16 157.84 293.4 158.01C293.9 157.47 294.45 156.76 294.8 156.22L295.77 156.72C295.24 157.34 294.64 158.03 294.12 158.54C294.47 158.8 294.78 159.07 295.03 159.32C295.8 158.58 296.53 157.8 297.07 157.11L298.07 157.66C297.16 158.62 296.02 159.72 294.95 160.61C295.83 160.6 296.75 160.59 297.68 160.56C297.43 160.22 297.16 159.91 296.91 159.62L297.79 159.15C298.51 159.93 299.35 161.01 299.68 161.74L298.76 162.28C298.65 162.04 298.48 161.75 298.29 161.44C297.4 161.48 296.49 161.51 295.63 161.54C295.45 161.83 295.26 162.12 295.04 162.39H297.61L297.8 162.35L298.48 162.66V162.69ZM294.27 163.3C294.62 163.82 295.09 164.28 295.63 164.69C296.19 164.28 296.66 163.8 297.01 163.26H294.3L294.28 163.3H294.27Z" fill="white"/>
<path d="M309.35 161.14C310.15 162.09 310.55 162.91 310.55 163.93C310.55 165.7 308.94 166.88 306.5 166.88C304.77 166.88 303.45 166.11 303.45 164.16C303.45 163.85 303.49 163.4 303.53 162.88C302.65 162.8 301.83 162.66 301.15 162.46L301.21 161.31C301.98 161.59 302.83 161.72 303.64 161.79C303.71 161.17 303.8 160.51 303.88 159.88C303.03 159.81 302.14 159.65 301.42 159.46L301.48 158.36C302.2 158.6 303.12 158.74 304.01 158.82C304.06 158.39 304.09 158 304.12 157.7C304.14 157.4 304.17 157.1 304.13 156.76L305.47 156.83C305.39 157.2 305.34 157.48 305.29 157.77L305.15 158.85C306.04 158.85 306.83 158.8 307.45 158.69L307.41 159.82C306.67 159.89 305.99 159.94 305.02 159.94H305C304.92 160.55 304.83 161.21 304.76 161.84H304.93C305.7 161.84 306.55 161.8 307.36 161.7L307.32 162.83C306.59 162.91 305.87 162.95 305.1 162.95H304.64C304.6 163.37 304.58 163.73 304.58 163.98C304.58 165.05 305.2 165.68 306.48 165.68C308.22 165.68 309.26 164.92 309.26 163.8C309.26 163 308.83 162.16 308 161.43L309.32 161.15L309.35 161.14Z" fill="white"/>
<path d="M232.45 175.46C232.37 175.66 232.28 175.87 232.2 176.07H238.16V181.2H237V180.83H232.37V181.23H231.27V177.72C230.69 178.56 230.01 179.28 229.27 179.83C229.1 179.6 228.68 179.19 228.44 178.99C229.65 178.19 230.65 176.93 231.25 175.46H228.85V174.57H233.46V173.87H229.96V173.04H233.46V172.34H229.39V171.45H231.49C231.33 171.15 231.11 170.8 230.88 170.54L231.86 170.2C232.2 170.56 232.54 171.06 232.68 171.41L232.58 171.45H235.46L235.39 171.43C235.63 171.08 235.95 170.55 236.11 170.19L237.31 170.51C237.06 170.85 236.79 171.18 236.57 171.45H238.75V172.34H234.6V173.04H238.17V173.87H234.6V174.57H239.24V175.46H232.46H232.45ZM232.36 176.9V177.49H236.99V176.9H232.36ZM236.99 178.15H232.36V178.75H236.99V178.15ZM236.99 180.01V179.4H232.36V180.01H236.99Z" fill="white"/>
<path d="M250.7 179.85C250.7 180.5 250.54 180.83 250.11 181C249.67 181.18 248.97 181.2 247.87 181.19C247.82 180.89 247.64 180.4 247.5 180.11C248.27 180.15 249.06 180.13 249.29 180.13C249.51 180.13 249.59 180.06 249.59 179.83V177.68H246.69V181.11H245.57V177.68H242.81C242.62 179 242.19 180.34 241.31 181.31C241.14 181.09 240.69 180.71 240.43 180.58C241.74 179.13 241.86 177.01 241.86 175.32V171.05H250.7V179.84V179.85ZM245.56 176.64V174.87H242.96V175.35C242.96 175.76 242.95 176.2 242.91 176.65H245.56V176.64ZM242.96 172.13V173.82H245.56V172.13H242.96ZM249.58 172.13H246.68V173.82H249.58V172.13ZM249.58 176.64V174.87H246.68V176.64H249.58Z" fill="white"/>
<path d="M263.37 172.19H261.94V179.77C261.94 180.49 261.76 180.86 261.26 181.03C260.74 181.23 259.9 181.25 258.71 181.25C258.65 180.93 258.42 180.37 258.24 180.05C259.15 180.1 260.15 180.09 260.44 180.09C260.7 180.08 260.79 180.01 260.79 179.75V172.19H252.73V171.07H263.38V172.19H263.37ZM254.97 178.27V179.21H253.89V173.77H258.83V178.28H254.97V178.27ZM254.97 174.81V177.21H257.73V174.81H254.97Z" fill="white"/>
<path d="M240.11 64.9598H235.28V68.2298C235.28 68.9098 235.11 69.2398 234.61 69.4298C234.12 69.5998 233.32 69.6298 232.2 69.6198C232.13 69.2998 231.91 68.7898 231.72 68.4698C232.62 68.5098 233.52 68.4898 233.8 68.4898C234.05 68.4798 234.12 68.4198 234.12 68.2098V64.9498H229.28V63.8298H234.12V61.9198H234.77C235.5 61.5098 236.27 60.9698 236.88 60.4598H230.51V59.3698H238.05L238.3 59.2998L239.14 59.9398C238.12 60.9798 236.62 62.0998 235.28 62.8398V63.8398H240.11V64.9598Z" fill="white"/>
<path d="M244.85 58.9496C244.53 59.7896 244.12 60.6496 243.66 61.4396V69.5796H242.57V63.1496C242.25 63.5896 241.91 63.9996 241.57 64.3596C241.46 64.0796 241.14 63.4796 240.96 63.2196C242.09 62.0996 243.15 60.3696 243.8 58.5996L244.84 58.9396L244.85 58.9496ZM247.51 66.7996C246.92 67.8396 246 68.8896 245.18 69.5596C244.98 69.3596 244.54 69.0196 244.29 68.8496C245.13 68.2596 245.95 67.3496 246.45 66.4596L247.5 66.7996H247.51ZM252.18 64.7996V65.8896H244.46V64.7996H246.19V62.0996H244.75V61.0296H246.19V58.6996H247.28V61.0296H249.34V58.6796H250.43V61.0296H252.06V62.0996H250.43V64.7996H252.18ZM247.27 64.7996H249.33V62.0996H247.27V64.7996ZM250.01 66.4896C250.79 67.2596 251.65 68.2896 252.07 68.9996L251.13 69.5996C250.73 68.8696 249.88 67.7796 249.1 66.9896L250 66.4996L250.01 66.4896Z" fill="white"/>
<path d="M258.42 67.9199C258.84 67.8799 259.19 67.8199 259.47 67.7499C260.99 67.3999 262.35 66.2999 262.35 64.3799C262.35 62.6499 261.32 61.2999 259.5 61.0699C259.33 62.1399 259.12 63.2899 258.79 64.3999C258.07 66.8199 257.09 68.1799 255.9 68.1799C254.71 68.1799 253.65 66.8499 253.65 64.8699C253.65 62.2299 255.99 59.9399 258.96 59.9399C261.93 59.9399 263.63 61.9299 263.63 64.4299C263.63 66.9299 262.03 68.6399 259.13 69.0499L258.42 67.9199ZM257.58 64.1499C257.88 63.2099 258.11 62.1399 258.23 61.0899C256.1 61.4399 254.85 63.2999 254.85 64.7599C254.85 66.1299 255.46 66.7499 255.94 66.7499C256.46 66.7499 257.03 65.9799 257.58 64.1499Z" fill="white"/>
<path d="M275.39 62.6798C274.89 64.2298 274.18 65.5798 273.3 66.7298C273.71 67.7498 274.18 68.3698 274.68 68.3698C274.99 68.3698 275.14 67.7598 275.21 66.2098C275.47 66.4698 275.87 66.7298 276.17 66.8298C275.99 68.9398 275.58 69.4998 274.6 69.4998C273.72 69.4998 273.03 68.8298 272.49 67.6998C271.81 68.4198 271.05 69.0298 270.22 69.5298C270.05 69.2898 269.66 68.8198 269.4 68.6198C270.4 68.0698 271.28 67.3698 272.01 66.5198C271.58 65.1598 271.3 63.4498 271.16 61.5798H267.32V63.0298H270.33V63.4598C270.27 66.0598 270.21 67.0898 269.96 67.4298C269.74 67.6798 269.52 67.7798 269.19 67.8098C268.89 67.8598 268.35 67.8598 267.77 67.8298C267.75 67.5098 267.64 67.0698 267.47 66.7898C267.96 66.8398 268.43 66.8498 268.62 66.8498C268.79 66.8498 268.91 66.8098 268.99 66.7098C269.12 66.5398 269.19 65.8598 269.23 64.0498H267.31C267.3 65.7498 267.09 68.1498 266.04 69.6998C265.85 69.4698 265.36 69.0798 265.1 68.9298C266.06 67.4898 266.14 65.4298 266.14 63.8798V60.4898H271.07C271.03 59.8698 271.01 59.2198 271.01 58.5798H272.19C272.18 59.2298 272.19 59.8598 272.23 60.4898H274.55C274.08 60.0898 273.3 59.5798 272.67 59.2298L273.34 58.5498C274.05 58.9198 274.95 59.4698 275.42 59.8798L274.84 60.4898H276.06V61.5798H272.29C272.41 63.0098 272.6 64.2998 272.88 65.3698C273.46 64.4798 273.9 63.4898 274.25 62.3798L275.38 62.6598L275.39 62.6798Z" fill="white"/>
<path d="M287.56 65.8498C286.82 66.3998 285.88 66.9498 285.08 67.3598C285.93 67.9598 286.99 68.3898 288.23 68.6298C287.98 68.8598 287.67 69.3298 287.52 69.6298C284.81 69.0098 283.09 67.5398 282.09 65.2398H280.53V68.1098L283.42 67.6698L283.48 68.6498C281.6 68.9698 279.58 69.2998 278.16 69.5298L277.9 68.5098C278.33 68.4498 278.85 68.3798 279.4 68.2898V65.2398H277.35V64.2398H279.41V59.0298H286.82V59.9698H280.53V60.7998H286.47V61.6898H280.53V62.5198H286.47V63.4098H280.53V64.2498H288.01V65.2498H286.65L287.55 65.8598L287.56 65.8498ZM283.23 65.2298C283.53 65.7898 283.9 66.2998 284.35 66.7398C285.14 66.2998 286.05 65.7198 286.64 65.2298H283.23Z" fill="white"/>
<path d="M292.77 61.4196C292.49 61.9196 292.16 62.4296 291.8 62.9196V69.6196H290.76V64.1596C290.38 64.5796 289.98 64.9596 289.58 65.2796C289.47 65.0496 289.15 64.4996 288.97 64.2596C290.03 63.4896 291.12 62.2796 291.79 61.0696L292.77 61.4196ZM292.53 58.9696C291.81 59.9996 290.71 61.1296 289.69 61.8396C289.56 61.6196 289.27 61.2296 289.09 61.0396C289.99 60.4196 291.02 59.4196 291.52 58.5896L292.53 58.9696ZM299.12 65.0296C298.69 66.0896 298.02 66.9296 297.18 67.6096C298.09 68.0996 299.17 68.4596 300.33 68.6696C300.1 68.8996 299.8 69.3396 299.66 69.6296C298.39 69.3496 297.25 68.8896 296.28 68.2496C295.23 68.8996 294 69.3496 292.72 69.6396C292.61 69.3596 292.38 68.9096 292.18 68.6896C293.33 68.4896 294.45 68.1096 295.41 67.5896C294.95 67.2096 294.56 66.7596 294.21 66.2796C293.8 66.6396 293.37 66.9396 292.94 67.1996C292.8 66.9796 292.44 66.5496 292.2 66.3696C293.29 65.8096 294.35 64.9396 295.04 63.9496C294.08 63.9696 293.19 63.9996 292.45 64.0196L292.35 63.0096C292.88 63.0096 293.5 62.9996 294.2 62.9896C294.42 62.8096 294.66 62.6096 294.88 62.3996C294.33 61.8196 293.44 61.1196 292.67 60.6096L293.34 59.8896C293.56 60.0296 293.8 60.1796 294.04 60.3496C294.54 59.8096 295.09 59.0996 295.44 58.5596L296.41 59.0596C295.88 59.6796 295.28 60.3696 294.76 60.8796C295.11 61.1396 295.42 61.4096 295.67 61.6596C296.44 60.9196 297.17 60.1396 297.71 59.4496L298.71 59.9996C297.8 60.9596 296.66 62.0596 295.59 62.9496C296.47 62.9396 297.39 62.9296 298.32 62.8996C298.07 62.5596 297.8 62.2496 297.55 61.9596L298.43 61.4896C299.15 62.2696 299.99 63.3496 300.32 64.0796L299.4 64.6196C299.29 64.3796 299.12 64.0896 298.93 63.7796C298.04 63.8196 297.13 63.8496 296.27 63.8796C296.09 64.1696 295.9 64.4596 295.68 64.7296H298.25L298.44 64.6896L299.12 64.9996V65.0296ZM294.91 65.6396C295.26 66.1596 295.73 66.6196 296.27 67.0296C296.83 66.6196 297.3 66.1396 297.65 65.5996H294.94L294.92 65.6396H294.91Z" fill="white"/>
<path d="M310 63.4796C310.8 64.4296 311.2 65.2496 311.2 66.2696C311.2 68.0396 309.59 69.2196 307.15 69.2196C305.42 69.2196 304.1 68.4496 304.1 66.4996C304.1 66.1896 304.14 65.7396 304.18 65.2196C303.3 65.1396 302.48 64.9996 301.8 64.7996L301.86 63.6496C302.63 63.9296 303.48 64.0596 304.29 64.1296C304.36 63.5096 304.45 62.8496 304.53 62.2196C303.68 62.1496 302.79 61.9896 302.07 61.7996L302.13 60.6996C302.85 60.9396 303.77 61.0796 304.66 61.1596C304.71 60.7296 304.74 60.3396 304.77 60.0396C304.79 59.7396 304.82 59.4396 304.78 59.0996L306.12 59.1696C306.04 59.5396 305.99 59.8196 305.94 60.1096L305.8 61.1896C306.69 61.1896 307.48 61.1396 308.1 61.0296L308.06 62.1596C307.32 62.2296 306.64 62.2796 305.67 62.2796H305.65C305.57 62.8896 305.48 63.5496 305.41 64.1796H305.58C306.35 64.1796 307.2 64.1396 308.01 64.0396L307.97 65.1696C307.24 65.2496 306.52 65.2896 305.75 65.2896H305.29C305.25 65.7096 305.23 66.0696 305.23 66.3196C305.23 67.3896 305.85 68.0196 307.13 68.0196C308.87 68.0196 309.91 67.2596 309.91 66.1396C309.91 65.3396 309.48 64.4996 308.65 63.7596L309.97 63.4796H310Z" fill="white"/>
<path d="M233.09 77.81C233.01 78.01 232.92 78.22 232.84 78.42H238.8V83.55H237.64V83.18H233.01V83.58H231.91V80.07C231.33 80.91 230.65 81.63 229.91 82.18C229.74 81.95 229.32 81.54 229.08 81.34C230.29 80.54 231.29 79.28 231.89 77.81H229.49V76.92H234.1V76.22H230.6V75.39H234.1V74.69H230.03V73.8H232.13C231.97 73.5 231.75 73.15 231.52 72.89L232.5 72.55C232.84 72.91 233.18 73.41 233.32 73.76L233.22 73.8H236.1L236.03 73.78C236.27 73.43 236.59 72.9 236.75 72.54L237.95 72.86C237.7 73.2 237.43 73.53 237.21 73.8H239.39V74.69H235.24V75.39H238.81V76.22H235.24V76.92H239.88V77.81H233.1H233.09ZM233.01 79.25V79.84H237.64V79.25H233.01ZM237.64 80.49H233.01V81.09H237.64V80.49ZM237.64 82.35V81.74H233.01V82.35H237.64Z" fill="white"/>
<path d="M251.34 82.1996C251.34 82.8496 251.18 83.1796 250.75 83.3496C250.31 83.5296 249.61 83.5496 248.51 83.5396C248.46 83.2396 248.28 82.7496 248.14 82.4596C248.91 82.4996 249.7 82.4797 249.93 82.4797C250.15 82.4797 250.23 82.4096 250.23 82.1796V80.0296H247.33V83.4596H246.21V80.0296H243.45C243.26 81.3496 242.83 82.6897 241.95 83.6597C241.78 83.4397 241.33 83.0596 241.07 82.9296C242.38 81.4796 242.5 79.3597 242.5 77.6597V73.3896H251.34V82.1796V82.1996ZM246.21 78.9797V77.2096H243.61V77.6897C243.61 78.0997 243.6 78.5396 243.56 78.9896H246.21V78.9797ZM243.6 74.4697V76.1597H246.2V74.4697H243.6ZM250.22 74.4697H247.32V76.1597H250.22V74.4697ZM250.22 78.9797V77.2096H247.32V78.9797H250.22Z" fill="white"/>
<path d="M264.01 74.5297H262.58V82.1097C262.58 82.8297 262.4 83.1997 261.9 83.3697C261.38 83.5697 260.54 83.5897 259.35 83.5897C259.29 83.2697 259.06 82.7097 258.88 82.3897C259.79 82.4397 260.79 82.4297 261.08 82.4297C261.34 82.4197 261.43 82.3497 261.43 82.0897V74.5297H253.37V73.4097H264.02V74.5297H264.01ZM255.62 80.6097V81.5497H254.54V76.1097H259.48V80.6197H255.62V80.6097ZM255.62 77.1597V79.5597H258.38V77.1597H255.62Z" fill="white"/>
<path d="M46.55 35.9903L43.14 24.7903H45.6L47.42 31.0503C47.5 31.2703 47.56 31.5203 47.62 31.7803C47.68 32.0403 47.73 32.2903 47.76 32.5303C47.8 32.7703 47.83 32.9903 47.86 33.2003C47.89 33.4103 47.91 33.5803 47.93 33.7203L47.55 33.7003C47.65 33.2503 47.73 32.8803 47.79 32.5703C47.85 32.2603 47.91 31.9903 47.97 31.7503C48.03 31.5103 48.1 31.2703 48.19 31.0203L49.95 26.4003H51.93L53.66 31.0203C53.79 31.3403 53.89 31.6503 53.97 31.9403C54.05 32.2303 54.12 32.5203 54.17 32.7903C54.22 33.0603 54.28 33.3403 54.33 33.6103L53.98 33.6703C54.01 33.4503 54.04 33.2503 54.05 33.0903C54.07 32.9203 54.08 32.7703 54.1 32.6303C54.12 32.4903 54.13 32.3503 54.16 32.2103C54.18 32.0703 54.21 31.9003 54.26 31.7003C54.31 31.5003 54.37 31.2703 54.45 31.0003L56.26 24.7803H58.69L55.25 35.9803H53.47L50.7 29.3603L50.96 29.3903L48.38 35.9803H46.54L46.55 35.9903Z" fill="white"/>
<path d="M64.8 36.1503C63.98 36.1503 63.22 36.0103 62.53 35.7203C61.84 35.4303 61.23 35.0303 60.71 34.5103C60.19 33.9903 59.8 33.3803 59.52 32.6703C59.24 31.9603 59.1 31.1903 59.1 30.3603C59.1 29.5303 59.24 28.7503 59.52 28.0503C59.8 27.3503 60.19 26.7403 60.71 26.2203C61.23 25.7003 61.83 25.2903 62.53 25.0003C63.22 24.7103 63.98 24.5703 64.8 24.5703C65.62 24.5703 66.39 24.7103 67.08 25.0003C67.77 25.2903 68.37 25.6903 68.89 26.2203C69.41 26.7503 69.81 27.3603 70.08 28.0603C70.35 28.7603 70.5 29.5303 70.5 30.3603C70.5 31.1903 70.36 31.9603 70.08 32.6603C69.8 33.3603 69.41 33.9803 68.89 34.5003C68.37 35.0203 67.77 35.4303 67.08 35.7203C66.39 36.0103 65.63 36.1503 64.8 36.1503ZM64.8 33.8803C65.27 33.8803 65.7 33.7903 66.1 33.6203C66.5 33.4503 66.84 33.2003 67.13 32.8803C67.42 32.5603 67.65 32.1903 67.81 31.7603C67.98 31.3303 68.06 30.8603 68.06 30.3503C68.06 29.8403 67.98 29.3703 67.81 28.9403C67.64 28.5103 67.42 28.1403 67.13 27.8303C66.84 27.5203 66.5 27.2703 66.1 27.0903C65.7 26.9103 65.27 26.8303 64.8 26.8303C64.33 26.8303 63.9 26.9203 63.51 27.0903C63.11 27.2703 62.77 27.5103 62.47 27.8303C62.17 28.1503 61.94 28.5203 61.79 28.9403C61.64 29.3703 61.56 29.8403 61.56 30.3503C61.56 30.8603 61.64 31.3303 61.79 31.7603C61.94 32.1903 62.17 32.5603 62.47 32.8803C62.77 33.2003 63.12 33.4503 63.51 33.6203C63.9 33.7903 64.34 33.8803 64.8 33.8803Z" fill="white"/>
<path d="M72.27 35.99V24.79H74.46L78.54 31.43L77.1 31.41L81.23 24.79H83.33V35.99H80.98V32.15C80.98 31.19 81 30.33 81.05 29.56C81.1 28.79 81.18 28.03 81.3 27.27L81.59 28.02L78.31 33.11H77.25L74.03 28.05L74.3 27.27C74.42 27.98 74.5 28.72 74.55 29.47C74.6 30.22 74.62 31.12 74.62 32.15V35.99H72.27Z" fill="white"/>
<path d="M85.84 35.99V24.79H93.41V26.9H88.18V33.88H93.52V35.99H85.84ZM86.96 31.3V29.25H92.64V31.3H86.96Z" fill="white"/>
<path d="M95.6 35.99V24.79H97.74L103.93 33.16H103.48C103.44 32.83 103.4 32.51 103.37 32.19C103.34 31.87 103.31 31.56 103.28 31.23C103.25 30.9 103.23 30.57 103.22 30.22C103.2 29.87 103.19 29.51 103.18 29.12C103.18 28.73 103.16 28.31 103.16 27.85V24.79H105.51V35.99H103.33L97.01 27.54L97.62 27.56C97.67 28.11 97.72 28.59 97.76 28.98C97.8 29.37 97.83 29.71 97.85 30C97.87 30.29 97.89 30.54 97.91 30.75C97.93 30.96 97.94 31.17 97.94 31.36C97.94 31.55 97.94 31.76 97.94 31.97V36H95.59L95.6 35.99Z" fill="white"/>
<path d="M107.65 28.8902L106.96 28.0402C107.4 27.8502 107.75 27.6202 108.02 27.3502C108.29 27.0802 108.43 26.8502 108.43 26.6602C108.43 26.5302 108.39 26.4102 108.3 26.3002C108.21 26.1902 108.09 26.0902 107.96 26.0002C107.71 25.8102 107.55 25.6302 107.46 25.4802C107.37 25.3302 107.32 25.1602 107.32 24.9802C107.32 24.6702 107.43 24.4302 107.65 24.2402C107.87 24.0602 108.15 23.9702 108.51 23.9702C108.83 23.9702 109.12 24.0502 109.37 24.2202C109.62 24.3902 109.82 24.6202 109.97 24.9102C110.12 25.2002 110.19 25.5402 110.19 25.9302C110.19 26.2502 110.13 26.5602 110 26.8702C109.87 27.1702 109.69 27.4602 109.46 27.7302C109.23 28.0002 108.96 28.2302 108.66 28.4302C108.36 28.6302 108.02 28.7902 107.66 28.8902H107.65Z" fill="white"/>
<path d="M115.51 36.1503C114.82 36.1503 114.19 36.0603 113.61 35.8903C113.04 35.7203 112.53 35.4703 112.09 35.1403C111.65 34.8103 111.25 34.4103 110.9 33.9403L112.4 32.2303C112.92 32.9603 113.44 33.4503 113.96 33.7103C114.48 33.9703 115.04 34.1003 115.65 34.1003C115.98 34.1003 116.28 34.0603 116.54 33.9603C116.8 33.8703 117.01 33.7403 117.16 33.5703C117.31 33.4003 117.38 33.2003 117.38 32.9603C117.38 32.7903 117.34 32.6303 117.27 32.4903C117.19 32.3503 117.09 32.2203 116.95 32.1103C116.81 32.0003 116.65 31.9003 116.45 31.8103C116.26 31.7203 116.04 31.6403 115.81 31.5703C115.58 31.5003 115.32 31.4403 115.04 31.4003C114.44 31.2603 113.92 31.0903 113.47 30.9003C113.02 30.7003 112.65 30.4603 112.35 30.1603C112.05 29.8703 111.83 29.5303 111.69 29.1603C111.55 28.7903 111.47 28.3703 111.47 27.9003C111.47 27.4303 111.58 26.9703 111.79 26.5603C112 26.1503 112.3 25.7903 112.68 25.5003C113.06 25.2003 113.5 24.9703 113.99 24.8103C114.48 24.6503 115.01 24.5703 115.57 24.5703C116.25 24.5703 116.85 24.6503 117.36 24.8003C117.87 24.9503 118.32 25.1803 118.7 25.4603C119.08 25.7503 119.4 26.1003 119.65 26.5203L118.13 27.9903C117.91 27.6903 117.66 27.4403 117.4 27.2403C117.14 27.0403 116.86 26.8903 116.55 26.7803C116.25 26.6803 115.93 26.6303 115.61 26.6303C115.26 26.6303 114.95 26.6803 114.7 26.7703C114.44 26.8603 114.24 26.9903 114.1 27.1603C113.96 27.3303 113.88 27.5403 113.88 27.7803C113.88 27.9703 113.93 28.1403 114.02 28.2903C114.12 28.4403 114.25 28.5703 114.44 28.6803C114.62 28.7903 114.84 28.8903 115.1 28.9803C115.36 29.0703 115.64 29.1403 115.95 29.2003C116.54 29.3203 117.06 29.4703 117.53 29.6603C118 29.8503 118.4 30.0803 118.74 30.3603C119.08 30.6403 119.33 30.9503 119.52 31.3203C119.7 31.6903 119.79 32.1003 119.79 32.5603C119.79 33.3203 119.61 33.9603 119.25 34.5003C118.89 35.0303 118.39 35.4403 117.75 35.7203C117.11 36.0003 116.36 36.1403 115.51 36.1403V36.1503Z" fill="white"/>
<path d="M43.29 44.93V43.73H46.65V44.93H43.29ZM44.08 48.89V43.23C44.08 42.9 44.15 42.61 44.3 42.34C44.45 42.07 44.65 41.86 44.91 41.71C45.17 41.56 45.47 41.48 45.81 41.48C46.04 41.48 46.26 41.52 46.47 41.6C46.68 41.68 46.85 41.78 47 41.91L46.58 42.95C46.49 42.9 46.41 42.85 46.32 42.81C46.23 42.77 46.15 42.76 46.07 42.76C45.94 42.76 45.84 42.78 45.76 42.82C45.68 42.86 45.62 42.93 45.57 43.01C45.53 43.09 45.51 43.2 45.51 43.32V48.88H44.08V48.89Z" fill="white"/>
<path d="M49.61 48.99C49.07 48.99 48.59 48.87 48.16 48.64C47.73 48.41 47.4 48.08 47.16 47.66C46.92 47.25 46.79 46.77 46.79 46.24C46.79 45.71 46.91 45.24 47.16 44.82C47.4 44.41 47.74 44.09 48.16 43.84C48.58 43.6 49.06 43.48 49.61 43.48C50.16 43.48 50.62 43.6 51.04 43.84C51.46 44.08 51.79 44.4 52.04 44.82C52.29 45.24 52.4 45.7 52.4 46.24C52.4 46.78 52.28 47.25 52.04 47.66C51.8 48.07 51.47 48.4 51.04 48.64C50.61 48.88 50.14 48.99 49.61 48.99ZM49.61 47.75C49.87 47.75 50.1 47.69 50.31 47.56C50.52 47.43 50.68 47.25 50.8 47.02C50.92 46.79 50.97 46.53 50.97 46.25C50.97 45.97 50.91 45.69 50.8 45.46C50.69 45.23 50.52 45.05 50.31 44.92C50.1 44.79 49.87 44.73 49.61 44.73C49.35 44.73 49.11 44.8 48.9 44.93C48.69 45.06 48.53 45.24 48.41 45.47C48.29 45.7 48.23 45.96 48.24 46.25C48.24 46.54 48.29 46.79 48.41 47.02C48.53 47.25 48.69 47.43 48.9 47.56C49.11 47.69 49.34 47.75 49.61 47.75Z" fill="white"/>
<path d="M53.22 48.8902V43.6002H54.59L54.64 45.3002L54.4 44.9502C54.48 44.6802 54.61 44.4302 54.79 44.2002C54.97 43.9802 55.18 43.8002 55.42 43.6802C55.66 43.5502 55.92 43.4902 56.19 43.4902C56.3 43.4902 56.41 43.4902 56.52 43.5202C56.63 43.5502 56.72 43.5602 56.79 43.5902L56.41 45.1502C56.33 45.1102 56.23 45.0802 56.12 45.0502C56.01 45.0202 55.89 45.0102 55.77 45.0102C55.61 45.0102 55.46 45.0402 55.33 45.0902C55.19 45.1502 55.07 45.2302 54.97 45.3302C54.87 45.4302 54.79 45.5602 54.74 45.6902C54.68 45.8302 54.65 45.9802 54.65 46.1502V48.8902H53.22Z" fill="white"/>
<path d="M60.37 48.8901V41.8901H63.34C63.75 41.8901 64.13 41.9901 64.46 42.1801C64.8 42.3801 65.06 42.6401 65.26 42.9901C65.46 43.3301 65.55 43.7101 65.55 44.1401C65.55 44.5701 65.45 44.9601 65.26 45.3101C65.06 45.6601 64.8 45.9301 64.46 46.1401C64.12 46.3401 63.75 46.4401 63.34 46.4401H61.87V48.8901H60.37ZM61.85 45.0901H63.17C63.33 45.0901 63.47 45.0501 63.6 44.9701C63.73 44.8901 63.83 44.7701 63.9 44.6401C63.98 44.5001 64.02 44.3401 64.02 44.1601C64.02 43.9801 63.98 43.8201 63.9 43.6901C63.82 43.5601 63.72 43.4501 63.6 43.3701C63.47 43.2901 63.33 43.2601 63.17 43.2601H61.85V45.1101V45.0901Z" fill="white"/>
<path d="M66.45 48.8902V43.6002H67.82L67.87 45.3002L67.63 44.9502C67.71 44.6802 67.84 44.4302 68.02 44.2002C68.2 43.9802 68.41 43.8002 68.66 43.6802C68.91 43.5602 69.16 43.4902 69.42 43.4902C69.53 43.4902 69.64 43.4902 69.75 43.5202C69.86 43.5402 69.95 43.5602 70.02 43.5902L69.64 45.1502C69.56 45.1102 69.46 45.0802 69.35 45.0502C69.24 45.0202 69.12 45.0102 69 45.0102C68.84 45.0102 68.69 45.0402 68.55 45.0902C68.41 45.1502 68.3 45.2302 68.2 45.3302C68.1 45.4302 68.02 45.5602 67.96 45.6902C67.9 45.8302 67.88 45.9802 67.88 46.1502V48.8902H66.45Z" fill="white"/>
<path d="M72.87 48.99C72.3 48.99 71.8 48.87 71.37 48.64C70.94 48.41 70.61 48.09 70.37 47.68C70.13 47.27 70.01 46.81 70.01 46.28C70.01 45.87 70.08 45.5 70.21 45.16C70.34 44.82 70.53 44.52 70.77 44.27C71.01 44.02 71.3 43.83 71.63 43.69C71.96 43.55 72.32 43.48 72.7 43.48C73.06 43.48 73.39 43.54 73.7 43.67C74.01 43.8 74.27 43.98 74.5 44.22C74.72 44.46 74.9 44.73 75.01 45.05C75.13 45.37 75.18 45.72 75.17 46.1V46.54H70.91L70.68 45.67H73.99L73.83 45.85V45.63C73.82 45.45 73.76 45.29 73.65 45.14C73.54 44.99 73.42 44.88 73.26 44.8C73.1 44.72 72.92 44.68 72.72 44.68C72.43 44.68 72.18 44.74 71.97 44.85C71.76 44.96 71.61 45.13 71.51 45.35C71.4 45.57 71.35 45.84 71.35 46.15C71.35 46.46 71.42 46.75 71.56 46.98C71.7 47.21 71.89 47.4 72.14 47.52C72.39 47.65 72.68 47.72 73.02 47.72C73.25 47.72 73.47 47.68 73.66 47.61C73.85 47.54 74.06 47.41 74.28 47.23L74.96 48.18C74.77 48.35 74.55 48.5 74.32 48.62C74.09 48.74 73.85 48.83 73.6 48.88C73.35 48.94 73.11 48.97 72.87 48.97V48.99Z" fill="white"/>
<path d="M78.33 51.1902C77.91 51.1902 77.5 51.1302 77.09 51.0102C76.68 50.8902 76.35 50.7302 76.1 50.5302L76.6 49.5102C76.73 49.6002 76.89 49.6902 77.06 49.7602C77.23 49.8302 77.41 49.8902 77.6 49.9302C77.79 49.9702 77.98 49.9902 78.18 49.9902C78.53 49.9902 78.81 49.9402 79.04 49.8302C79.26 49.7202 79.43 49.5602 79.54 49.3502C79.65 49.1402 79.71 48.8702 79.71 48.5502V47.6302L79.95 47.6802C79.91 47.9002 79.8 48.1002 79.62 48.2802C79.44 48.4602 79.21 48.6102 78.94 48.7202C78.67 48.8302 78.39 48.8902 78.1 48.8902C77.61 48.8902 77.17 48.7802 76.79 48.5502C76.41 48.3202 76.11 48.0102 75.89 47.6102C75.67 47.2102 75.56 46.7502 75.56 46.2302C75.56 45.7102 75.67 45.2302 75.88 44.8102C76.1 44.4002 76.39 44.0802 76.77 43.8402C77.15 43.6002 77.57 43.4902 78.06 43.4902C78.26 43.4902 78.45 43.5102 78.63 43.5602C78.81 43.6102 78.98 43.6702 79.14 43.7602C79.3 43.8402 79.44 43.9402 79.56 44.0402C79.68 44.1402 79.78 44.2502 79.86 44.3702C79.94 44.4902 79.99 44.6102 80.01 44.7302L79.72 44.8102L79.76 43.6002H81.12V48.4902C81.12 48.9202 81.06 49.3102 80.93 49.6402C80.8 49.9702 80.62 50.2602 80.37 50.4902C80.13 50.7202 79.83 50.8902 79.48 51.0102C79.13 51.1302 78.74 51.1902 78.31 51.1902H78.33ZM78.37 47.7502C78.65 47.7502 78.89 47.6902 79.11 47.5602C79.32 47.4302 79.48 47.2602 79.59 47.0302C79.7 46.8002 79.76 46.5402 79.76 46.2302C79.76 45.9202 79.7 45.6702 79.59 45.4402C79.48 45.2102 79.31 45.0302 79.11 44.9002C78.9 44.7702 78.65 44.7102 78.37 44.7102C78.09 44.7102 77.86 44.7702 77.64 44.9102C77.43 45.0402 77.27 45.2202 77.16 45.4402C77.05 45.6702 76.99 45.9302 76.99 46.2302C76.99 46.5302 77.05 46.7902 77.16 47.0202C77.27 47.2502 77.44 47.4302 77.64 47.5602C77.85 47.6902 78.09 47.7502 78.37 47.7502Z" fill="white"/>
<path d="M82.3 48.89V43.6H83.66L83.7 44.68L83.42 44.8C83.49 44.56 83.63 44.34 83.81 44.14C84 43.94 84.23 43.79 84.5 43.66C84.77 43.54 85.05 43.48 85.34 43.48C85.74 43.48 86.07 43.56 86.34 43.72C86.61 43.88 86.81 44.12 86.95 44.45C87.09 44.77 87.16 45.17 87.16 45.64V48.88H85.74V45.75C85.74 45.51 85.71 45.31 85.64 45.15C85.57 44.99 85.47 44.87 85.34 44.8C85.2 44.72 85.03 44.69 84.84 44.7C84.68 44.7 84.53 44.73 84.39 44.78C84.25 44.83 84.14 44.9 84.04 44.99C83.94 45.08 83.87 45.19 83.81 45.31C83.75 45.43 83.73 45.56 83.73 45.7V48.88H82.31L82.3 48.89Z" fill="white"/>
<path d="M90.25 48.9902C89.81 48.9902 89.41 48.8702 89.06 48.6302C88.71 48.3902 88.43 48.0602 88.22 47.6502C88.01 47.2402 87.91 46.7602 87.91 46.2302C87.91 45.7002 88.01 45.2302 88.22 44.8102C88.43 44.4002 88.72 44.0802 89.08 43.8402C89.44 43.6002 89.85 43.4902 90.31 43.4902C90.57 43.4902 90.81 43.5302 91.02 43.6002C91.24 43.6802 91.43 43.7802 91.59 43.9102C91.75 44.0402 91.89 44.2002 92.01 44.3702C92.13 44.5402 92.2 44.7302 92.25 44.9302L91.95 44.8802V43.5902H93.36V48.8802H91.93V47.6102L92.25 47.5802C92.2 47.7702 92.11 47.9402 91.99 48.1102C91.87 48.2802 91.72 48.4202 91.54 48.5502C91.36 48.6802 91.16 48.7802 90.94 48.8602C90.72 48.9402 90.49 48.9802 90.24 48.9802L90.25 48.9902ZM90.64 47.7602C90.91 47.7602 91.14 47.7002 91.34 47.5702C91.54 47.4402 91.69 47.2602 91.8 47.0302C91.91 46.8002 91.97 46.5302 91.97 46.2202C91.97 45.9102 91.91 45.6602 91.8 45.4302C91.69 45.2002 91.53 45.0302 91.34 44.9002C91.14 44.7702 90.91 44.7002 90.64 44.7002C90.37 44.7002 90.15 44.7602 89.96 44.9002C89.76 45.0302 89.61 45.2102 89.5 45.4302C89.39 45.6602 89.33 45.9202 89.33 46.2202C89.33 46.5202 89.39 46.8002 89.5 47.0302C89.61 47.2602 89.77 47.4402 89.96 47.5702C90.16 47.7002 90.38 47.7602 90.64 47.7602Z" fill="white"/>
<path d="M94.53 48.89V43.6H95.89L95.93 44.68L95.65 44.8C95.72 44.56 95.86 44.34 96.05 44.14C96.24 43.94 96.47 43.79 96.73 43.66C97 43.54 97.28 43.48 97.57 43.48C97.97 43.48 98.31 43.56 98.57 43.72C98.84 43.88 99.04 44.12 99.18 44.45C99.32 44.77 99.38 45.17 99.38 45.64V48.88H97.96V45.75C97.96 45.51 97.93 45.31 97.86 45.15C97.79 44.99 97.69 44.87 97.56 44.8C97.43 44.73 97.26 44.69 97.06 44.7C96.9 44.7 96.75 44.73 96.61 44.78C96.47 44.83 96.36 44.9 96.26 44.99C96.16 45.08 96.09 45.19 96.03 45.31C95.97 45.43 95.95 45.56 95.95 45.7V48.88H94.53V48.89Z" fill="white"/>
<path d="M100.02 44.8703V43.6003H103.51V44.8703H100.02ZM101.01 48.8903V42.2603H102.43V48.8903H101.01Z" fill="white"/>
<path d="M108.99 48.9902C108.55 48.9902 108.15 48.8702 107.8 48.6302C107.45 48.3902 107.17 48.0602 106.96 47.6502C106.75 47.2402 106.65 46.7602 106.65 46.2302C106.65 45.7002 106.76 45.2302 106.97 44.8102C107.18 44.4002 107.47 44.0802 107.82 43.8402C108.18 43.6002 108.59 43.4902 109.05 43.4902C109.31 43.4902 109.55 43.5302 109.76 43.6002C109.98 43.6802 110.17 43.7802 110.33 43.9102C110.49 44.0402 110.63 44.2002 110.75 44.3702C110.86 44.5402 110.94 44.7302 110.99 44.9302L110.69 44.8802V43.5902H112.1V48.8802H110.67V47.6102L110.99 47.5802C110.94 47.7702 110.85 47.9402 110.73 48.1102C110.61 48.2802 110.46 48.4202 110.28 48.5502C110.1 48.6802 109.9 48.7802 109.69 48.8602C109.47 48.9402 109.24 48.9802 108.99 48.9802V48.9902ZM109.38 47.7602C109.65 47.7602 109.88 47.7002 110.08 47.5702C110.28 47.4402 110.44 47.2602 110.55 47.0302C110.66 46.8002 110.72 46.5302 110.72 46.2202C110.72 45.9102 110.67 45.6602 110.55 45.4302C110.44 45.2002 110.29 45.0302 110.08 44.9002C109.88 44.7702 109.65 44.7002 109.38 44.7002C109.11 44.7002 108.89 44.7602 108.69 44.9002C108.49 45.0302 108.34 45.2102 108.23 45.4302C108.12 45.6602 108.06 45.9202 108.06 46.2202C108.06 46.5202 108.12 46.8002 108.23 47.0302C108.34 47.2602 108.5 47.4402 108.69 47.5702C108.89 47.7002 109.12 47.7602 109.38 47.7602Z" fill="white"/>
<path d="M113.27 48.89V43.6H114.63L114.67 44.68L114.39 44.8C114.46 44.56 114.6 44.34 114.78 44.14C114.97 43.94 115.2 43.79 115.47 43.66C115.74 43.54 116.02 43.48 116.31 43.48C116.71 43.48 117.04 43.56 117.31 43.72C117.58 43.88 117.78 44.12 117.92 44.45C118.06 44.77 118.13 45.17 118.13 45.64V48.88H116.71V45.75C116.71 45.51 116.68 45.31 116.61 45.15C116.54 44.99 116.44 44.87 116.31 44.8C116.17 44.72 116 44.69 115.81 44.7C115.65 44.7 115.5 44.73 115.36 44.78C115.22 44.83 115.11 44.9 115.01 44.99C114.91 45.08 114.84 45.19 114.78 45.31C114.72 45.43 114.7 45.56 114.7 45.7V48.88H113.28L113.27 48.89Z" fill="white"/>
<path d="M121.31 48.99C120.85 48.99 120.44 48.87 120.07 48.64C119.7 48.41 119.41 48.08 119.2 47.67C118.99 47.26 118.89 46.79 118.89 46.25C118.89 45.71 118.99 45.25 119.2 44.84C119.41 44.43 119.7 44.1 120.06 43.86C120.42 43.62 120.84 43.5 121.31 43.5C121.56 43.5 121.79 43.54 122.02 43.61C122.25 43.69 122.46 43.79 122.64 43.92C122.82 44.05 122.97 44.2 123.08 44.37C123.19 44.54 123.26 44.7 123.27 44.89L122.91 44.95V41.5H124.33V48.9H122.99L122.93 47.68L123.21 47.71C123.2 47.88 123.14 48.04 123.03 48.19C122.92 48.34 122.78 48.48 122.61 48.61C122.44 48.74 122.23 48.83 122.01 48.9C121.79 48.97 121.55 49 121.3 49L121.31 48.99ZM121.63 47.81C121.9 47.81 122.13 47.74 122.33 47.61C122.53 47.48 122.69 47.29 122.8 47.06C122.91 46.83 122.97 46.55 122.97 46.24C122.97 45.93 122.91 45.66 122.8 45.43C122.69 45.19 122.53 45.01 122.33 44.88C122.13 44.75 121.9 44.69 121.63 44.69C121.36 44.69 121.13 44.75 120.93 44.88C120.73 45.01 120.58 45.19 120.47 45.43C120.36 45.67 120.31 45.94 120.31 46.24C120.31 46.54 120.36 46.83 120.47 47.06C120.58 47.29 120.73 47.48 120.93 47.61C121.13 47.74 121.36 47.81 121.63 47.81Z" fill="white"/>
<path d="M128.49 48.8901V41.8901H129.86L132.41 46.0401H131.51L134.09 41.8901H135.4V48.8901H133.93V46.4901C133.93 45.8901 133.95 45.3501 133.97 44.8701C134 44.3901 134.05 43.9101 134.13 43.4401L134.31 43.9101L132.26 47.0901H131.6L129.59 43.9301L129.76 43.4401C129.83 43.8901 129.88 44.3501 129.92 44.8201C129.95 45.2901 129.96 45.8501 129.96 46.5001V48.9001H128.49V48.8901Z" fill="white"/>
<path d="M139.23 48.99C138.69 48.99 138.21 48.87 137.78 48.64C137.35 48.41 137.02 48.08 136.78 47.66C136.54 47.25 136.41 46.77 136.41 46.24C136.41 45.71 136.53 45.24 136.78 44.82C137.02 44.41 137.36 44.09 137.78 43.84C138.2 43.6 138.68 43.48 139.23 43.48C139.78 43.48 140.24 43.6 140.66 43.84C141.08 44.08 141.41 44.4 141.66 44.82C141.91 45.24 142.02 45.7 142.02 46.24C142.02 46.78 141.9 47.25 141.66 47.66C141.42 48.07 141.09 48.4 140.66 48.64C140.23 48.88 139.76 48.99 139.23 48.99ZM139.23 47.75C139.49 47.75 139.72 47.69 139.93 47.56C140.14 47.43 140.3 47.25 140.42 47.02C140.54 46.79 140.59 46.53 140.59 46.25C140.59 45.97 140.53 45.69 140.42 45.46C140.31 45.23 140.14 45.05 139.93 44.92C139.72 44.79 139.49 44.73 139.23 44.73C138.97 44.73 138.73 44.8 138.52 44.93C138.31 45.06 138.15 45.24 138.03 45.47C137.91 45.7 137.85 45.96 137.86 46.25C137.86 46.54 137.91 46.79 138.03 47.02C138.15 47.25 138.31 47.43 138.52 47.56C138.73 47.69 138.96 47.75 139.23 47.75Z" fill="white"/>
<path d="M142.83 48.8902V43.6002H144.2L144.23 44.6102L144.02 44.6502C144.09 44.4802 144.19 44.3202 144.31 44.1802C144.43 44.0402 144.57 43.9202 144.73 43.8202C144.89 43.7202 145.07 43.6402 145.25 43.5802C145.43 43.5202 145.61 43.5002 145.79 43.5002C146.06 43.5002 146.31 43.5402 146.53 43.6302C146.75 43.7202 146.94 43.8502 147.09 44.0302C147.24 44.2102 147.36 44.4502 147.45 44.7602L147.23 44.7402L147.3 44.5802C147.39 44.4202 147.5 44.2702 147.63 44.1402C147.76 44.0102 147.91 43.9002 148.08 43.8002C148.25 43.7002 148.42 43.6302 148.6 43.5702C148.78 43.5202 148.96 43.4902 149.13 43.4902C149.54 43.4902 149.89 43.5702 150.16 43.7402C150.43 43.9002 150.64 44.1502 150.78 44.4702C150.92 44.8002 150.99 45.2002 150.99 45.6702V48.8802H149.57V45.7702C149.57 45.5302 149.54 45.3302 149.47 45.1802C149.4 45.0302 149.31 44.9102 149.18 44.8402C149.05 44.7702 148.89 44.7202 148.69 44.7202C148.54 44.7202 148.4 44.7502 148.27 44.8002C148.14 44.8502 148.03 44.9202 147.93 45.0102C147.83 45.1002 147.76 45.2002 147.7 45.3202C147.65 45.4402 147.62 45.5702 147.62 45.7202V48.8802H146.2V45.7602C146.2 45.5402 146.16 45.3502 146.1 45.2002C146.03 45.0402 145.93 44.9302 145.81 44.8502C145.68 44.7702 145.53 44.7302 145.34 44.7302C145.19 44.7302 145.05 44.7602 144.91 44.8102C144.78 44.8602 144.67 44.9302 144.58 45.0202C144.49 45.1102 144.41 45.2102 144.35 45.3302C144.29 45.4502 144.27 45.5802 144.27 45.7202V48.8902H142.85H142.83Z" fill="white"/>
<path d="M153.86 48.9902C153.37 48.9902 152.93 48.9102 152.55 48.7402C152.17 48.5802 151.86 48.3502 151.62 48.0702L152.5 47.3102C152.71 47.5302 152.94 47.6902 153.19 47.7902C153.44 47.8902 153.7 47.9402 153.95 47.9402C154.05 47.9402 154.14 47.9302 154.23 47.9002C154.31 47.8802 154.38 47.8402 154.44 47.8002C154.5 47.7602 154.55 47.7002 154.57 47.6402C154.6 47.5802 154.61 47.5102 154.61 47.4302C154.61 47.2802 154.55 47.1702 154.43 47.0802C154.36 47.0502 154.26 47.0102 154.12 46.9602C153.98 46.9102 153.8 46.8602 153.58 46.7902C153.24 46.7002 152.95 46.6002 152.71 46.4902C152.47 46.3802 152.29 46.2402 152.15 46.0902C152.03 45.9502 151.94 45.8002 151.87 45.6302C151.81 45.4702 151.77 45.2802 151.77 45.0902C151.77 44.8502 151.82 44.6302 151.93 44.4302C152.04 44.2302 152.19 44.0702 152.38 43.9302C152.57 43.7902 152.79 43.6802 153.04 43.6002C153.29 43.5202 153.55 43.4902 153.82 43.4902C154.09 43.4902 154.36 43.5202 154.62 43.5902C154.88 43.6602 155.12 43.7502 155.35 43.8702C155.57 43.9902 155.77 44.1402 155.93 44.3102L155.17 45.1502C155.05 45.0402 154.92 44.9302 154.76 44.8402C154.61 44.7502 154.46 44.6702 154.3 44.6202C154.14 44.5702 154 44.5402 153.87 44.5402C153.76 44.5402 153.66 44.5502 153.57 44.5702C153.48 44.5902 153.41 44.6202 153.35 44.6602C153.29 44.7002 153.24 44.7502 153.22 44.8102C153.19 44.8702 153.18 44.9402 153.18 45.0202C153.18 45.1002 153.2 45.1602 153.23 45.2302C153.27 45.3002 153.32 45.3502 153.38 45.4002C153.45 45.4402 153.56 45.4902 153.71 45.5402C153.85 45.5902 154.05 45.6502 154.29 45.7202C154.61 45.8102 154.88 45.9002 155.11 46.0102C155.34 46.1202 155.51 46.2402 155.65 46.3802C155.76 46.5002 155.85 46.6402 155.9 46.7902C155.95 46.9402 155.98 47.1102 155.98 47.3002C155.98 47.6302 155.89 47.9202 155.71 48.1802C155.53 48.4402 155.27 48.6402 154.95 48.7802C154.63 48.9202 154.27 49.0002 153.87 49.0002L153.86 48.9902Z" fill="white"/>
<path d="M47.81 61.29C47.67 63.46 47.32 65.18 46.74 66.53C47.29 66.96 47.76 67.41 48.07 67.79L47.4 68.68C47.12 68.33 46.73 67.92 46.25 67.52C45.67 68.53 44.93 69.27 44.02 69.82C43.86 69.54 43.58 69.14 43.34 68.93C44.18 68.49 44.86 67.78 45.4 66.82C45.08 66.58 44.75 66.34 44.42 66.12L44.3 66.58L43.39 66.09C43.68 65.08 44 63.68 44.31 62.23H43.27V61.2H44.53C44.7 60.36 44.85 59.53 44.97 58.79L46.04 58.91C45.91 59.63 45.74 60.41 45.57 61.2H46.95L47.15 61.18L47.81 61.3V61.29ZM45.35 62.22C45.13 63.22 44.89 64.2 44.68 65.09C45.06 65.33 45.47 65.58 45.86 65.86C46.27 64.85 46.54 63.64 46.69 62.23H45.36L45.35 62.22ZM51.48 64.79V68.46H54.03V69.52H47.85V68.46H50.36V64.79H47.7V63.73H50.36V60.56C49.59 60.7 48.8 60.82 48.06 60.91C48.02 60.67 47.85 60.26 47.74 60.02C49.62 59.77 51.76 59.32 52.96 58.8L53.86 59.63C53.18 59.91 52.36 60.13 51.48 60.34V63.73H54.24V64.79H51.48Z" fill="white"/>
<path d="M58.57 68.57C58.39 68.28 58.13 67.95 57.82 67.6C57.33 68.55 56.69 69.27 55.9 69.79C55.74 69.53 55.47 69.13 55.24 68.93C55.98 68.49 56.58 67.77 57.04 66.8C56.78 66.55 56.51 66.31 56.25 66.08L56.14 66.56L55.28 66.01C55.52 65.03 55.78 63.63 56.04 62.22H55.22V61.2H56.2C56.34 60.36 56.46 59.52 56.56 58.79L57.58 58.89C57.47 59.61 57.34 60.4 57.2 61.2H58.29L58.48 61.18L59.12 61.26C59.02 63.47 58.75 65.19 58.28 66.55C58.68 66.96 59.02 67.35 59.25 67.7L58.58 68.58L58.57 68.57ZM57.02 62.21C56.85 63.16 56.66 64.12 56.48 64.98C56.8 65.22 57.13 65.48 57.44 65.76C57.75 64.76 57.96 63.58 58.05 62.21H57.02ZM66.18 65.58C65.69 66.04 65.15 66.5 64.68 66.86C65.08 67.76 65.63 68.48 66.37 68.91C66.14 69.1 65.79 69.52 65.66 69.79C64.18 68.82 63.48 66.9 63.12 64.54H62.41V68.23L64.04 67.93L64.11 68.87C62.94 69.12 61.71 69.4 60.74 69.6L60.45 68.56C60.74 68.52 61.06 68.46 61.41 68.4V64.54H60.75C60.67 66.29 60.37 68.34 59.49 69.78C59.31 69.61 58.87 69.3 58.63 69.18C59.66 67.46 59.75 65.02 59.75 63.22V59.36H65.96V60.36H60.78V63.57H66.11V64.54H64.01C64.11 65.08 64.23 65.61 64.38 66.09C64.78 65.72 65.18 65.29 65.46 64.94L66.18 65.59V65.58ZM61.3 62.4V61.44H65.58V62.4H61.3Z" fill="white"/>
<path d="M77.54 60.88V66.61H76.38V65.96H73.26V69.77H72.1V65.96H68.99V66.67H67.87V60.88H72.09V58.79H73.25V60.88H77.53H77.54ZM72.1 64.87V61.97H68.99V64.87H72.1ZM76.38 64.87V61.97H73.26V64.87H76.38Z" fill="white"/>
<path d="M82.48 65.09C82.48 62.73 83.14 60.77 84.25 58.96L85.11 59.33C84.08 61.06 83.6 63.08 83.6 65.09C83.6 67.1 84.08 69.13 85.11 70.85L84.25 71.23C83.13 69.41 82.48 67.48 82.48 65.09Z" fill="white"/>
<path d="M92.61 59.1401C92.35 59.9601 91.99 60.7701 91.6 61.5601V69.7601H90.53V63.4001C90.23 63.8301 89.94 64.2201 89.64 64.5801C89.53 64.3201 89.21 63.7001 89.02 63.4501C90.05 62.3201 90.99 60.5701 91.56 58.8301L92.6 59.1301L92.61 59.1401ZM97.27 62.1301C97.95 64.0601 99.13 65.9901 100.36 67.0401C100.08 67.2401 99.71 67.6301 99.51 67.9301C98.38 66.8101 97.35 64.9401 96.64 62.9901V66.6701H98.41V67.6801H96.64V69.7301H95.55V67.6801H93.76V66.6701H95.55V63.0601C94.82 65.0301 93.77 66.8401 92.6 67.9701C92.43 67.6901 92.05 67.3101 91.81 67.1201C93.08 66.0601 94.26 64.1101 94.96 62.1401H92.33V61.0801H95.54V58.8501H96.63V61.0801H100.06V62.1401H97.25L97.27 62.1301Z" fill="white"/>
<path d="M112.03 68.3501V69.3801H101.31V68.3501H106.13V67.0801H102.53V66.0601H106.13V65.1201H105.23V62.6801H103.89C103.72 63.6901 103.25 64.7201 102.06 65.4101C101.92 65.2101 101.53 64.7901 101.33 64.6301C102.3 64.0801 102.69 63.3801 102.84 62.6701H101.49V61.6701H102.94V60.2101H101.9V59.2301H107.27V60.2101H106.29V61.6701H107.54V62.6701H106.29V64.8901H107.3V66.0401H110.83V67.0601H107.3V68.3301H112.05L112.03 68.3501ZM105.23 61.7001V60.2401H103.96V61.7001H105.23ZM109.18 63.4701H108.16V59.4801H109.18V63.4701ZM111.41 64.0901C111.41 64.6501 111.3 64.9301 110.91 65.1001C110.53 65.2601 109.94 65.2801 109.09 65.2801C109.04 64.9901 108.9 64.5501 108.75 64.2701C109.36 64.2901 109.95 64.2901 110.12 64.2801C110.31 64.2801 110.36 64.2301 110.36 64.0801V58.8901H111.41V64.1001V64.0901Z" fill="white"/>
<path d="M122.29 65.5C121.71 66.51 120.89 67.3 119.88 67.92C121.09 68.36 122.57 68.64 124.22 68.75C123.98 69.03 123.69 69.49 123.56 69.79C121.64 69.61 120.01 69.21 118.68 68.54C117.22 69.19 115.5 69.58 113.73 69.81C113.66 69.55 113.4 69.04 113.19 68.81C114.79 68.65 116.3 68.35 117.6 67.89C117.06 67.51 116.59 67.06 116.18 66.55C115.6 66.93 114.96 67.29 114.22 67.61C114.06 67.33 113.74 66.95 113.51 66.78C115.37 66.11 116.63 65.11 117.29 64.17L118.46 64.39C118.29 64.62 118.11 64.85 117.92 65.06H121.35L121.54 65.01L122.27 65.5H122.29ZM116.19 61.74C115.7 62.64 114.86 63.59 114.01 64.16C113.82 63.94 113.46 63.66 113.24 63.5C114.03 63.01 114.8 62.18 115.13 61.45L116.19 61.74ZM118.29 60.95C118.29 62.19 118.09 63.77 116.26 64.91C116.08 64.67 115.7 64.32 115.45 64.15C117.08 63.19 117.24 61.91 117.24 60.92H113.47V59.89H118.1V58.77H119.24V59.89H123.93V60.92H120.76V63.34C120.76 63.84 120.7 64.13 120.32 64.29C119.96 64.45 119.42 64.45 118.65 64.45C118.61 64.16 118.47 63.75 118.35 63.47C118.85 63.49 119.36 63.49 119.5 63.48C119.64 63.48 119.68 63.44 119.68 63.31V60.92H118.29V60.94V60.95ZM116.99 65.97C117.42 66.53 118.02 67.01 118.74 67.41C119.49 67.01 120.14 66.53 120.63 65.96H116.98L116.99 65.97ZM122.12 61.41C122.86 62.07 123.74 63.03 124.16 63.69L123.21 64.25C122.85 63.61 121.99 62.61 121.27 61.91L122.12 61.41Z" fill="white"/>
<path d="M129.4 59.32C129.04 60.16 128.61 60.99 128.1 61.78V69.77H126.98V63.35C126.54 63.91 126.06 64.43 125.59 64.86C125.47 64.57 125.12 63.97 124.92 63.7C126.25 62.58 127.54 60.8 128.3 58.96L129.39 59.32H129.4ZM134.41 68.58C135.03 68.58 135.12 68.16 135.21 66.44C135.49 66.64 135.94 66.85 136.25 66.92C136.11 68.91 135.78 69.62 134.47 69.62H132.2C130.84 69.62 130.45 69.21 130.45 67.76V59.07H131.57V63.36C132.82 62.66 134.08 61.8 134.9 61.05L135.7 62.02C134.56 62.9 133 63.76 131.56 64.5V67.77C131.56 68.45 131.68 68.57 132.3 68.57H134.39L134.41 68.58Z" fill="white"/>
<path d="M143.53 61.7399C142.94 61.8999 142.21 62.0499 141.42 62.1599C140.84 63.8299 139.81 65.8999 138.84 67.2099L137.69 66.6199C138.66 65.4599 139.66 63.6299 140.17 62.2899C139.88 62.2999 139.61 62.3099 139.32 62.3099C138.86 62.3099 138.37 62.2999 137.89 62.2599L137.81 61.1599C138.28 61.2099 138.84 61.2299 139.32 61.2299C139.72 61.2299 140.12 61.2199 140.54 61.1799C140.72 60.5199 140.86 59.7899 140.89 59.1699L142.2 59.2899C142.1 59.6999 141.95 60.3599 141.77 61.0299C142.37 60.9299 142.96 60.7899 143.5 60.6199L143.54 61.7399H143.53ZM145 62.9799C144.96 63.4799 144.98 63.8899 144.99 64.3699C145 64.7499 145.04 65.4399 145.07 66.1099C146.09 66.4799 146.93 67.0799 147.53 67.6099L146.89 68.6299C146.42 68.2099 145.82 67.6899 145.11 67.3099V67.6299C145.11 68.6399 144.5 69.4499 142.94 69.4499C141.56 69.4499 140.44 68.8599 140.44 67.6299C140.44 66.5099 141.45 65.7199 142.92 65.7199C143.27 65.7199 143.59 65.7399 143.91 65.7999C143.86 64.8599 143.8 63.7499 143.78 62.9699H144.98L145 62.9799ZM143.96 66.8399C143.62 66.7399 143.25 66.6999 142.87 66.6999C142.08 66.6999 141.56 67.0499 141.56 67.5299C141.56 68.0299 141.97 68.3799 142.78 68.3799C143.67 68.3799 143.97 67.8799 143.97 67.2599C143.97 67.1399 143.97 67.0099 143.96 66.8399ZM147.21 63.4299C146.55 62.8899 145.24 62.1399 144.44 61.7799L145.04 60.8599C145.89 61.2299 147.29 62.0199 147.88 62.4599L147.21 63.4399V63.4299Z" fill="white"/>
<path d="M157.7 62.1002C157.39 62.2902 157.07 62.4602 156.68 62.6602C155.9 63.0602 154.67 63.6302 153.54 64.3802C152.49 65.0602 151.83 65.8002 151.83 66.6602C151.83 67.6002 152.72 68.1402 154.49 68.1402C155.75 68.1402 157.34 67.9702 158.33 67.7202V69.0802C157.37 69.2502 156.05 69.3802 154.54 69.3802C152.25 69.3802 150.56 68.7102 150.56 66.8102C150.56 65.5502 151.36 64.5702 152.58 63.7002C152.03 62.7002 151.43 61.3702 150.89 60.1002L152.08 59.6102C152.54 60.8902 153.12 62.1002 153.62 63.0302C154.59 62.4502 155.56 61.9702 156.17 61.6302C156.55 61.4102 156.85 61.2302 157.12 61.0102L157.72 62.1102L157.7 62.1002ZM157.92 59.4302C158.22 59.8702 158.65 60.6202 158.88 61.0902L158.1 61.4402C157.86 60.9502 157.46 60.2302 157.14 59.7602L157.92 59.4402V59.4302ZM159.27 58.9302C159.59 59.3702 160.05 60.1302 160.27 60.5602L159.49 60.9102C159.24 60.3902 158.84 59.7002 158.51 59.2502L159.28 58.9302H159.27Z" fill="white"/>
<path d="M164.5 64.2901C164.5 66.7201 163.49 68.6401 162.12 70.0201L161.21 69.5901C162.52 68.2201 163.42 66.5001 163.42 64.2901C163.42 62.0801 162.52 60.3601 161.21 58.9901L162.12 58.5601C163.49 59.9401 164.5 61.8601 164.5 64.2901Z" fill="white"/>
<path d="M176.15 59.27H177.11L173.78 71H172.82L176.15 59.27Z" fill="white"/>
<path d="M54.06 76.2203V77.1903H45.26V78.1103C45.26 79.7203 45.06 82.1503 43.98 83.7603C43.8 83.5703 43.34 83.1703 43.13 83.0503C44.09 81.5703 44.2 79.5203 44.2 78.1103V76.2103H46.44C46.34 75.8003 46.13 75.2503 45.9 74.8203L46.33 74.7103H44.05V73.7402H48.18V72.7603H49.3V73.7402H53.47V74.7103H51.77L51.93 74.7503C51.63 75.2703 51.33 75.8103 51.08 76.2103H54.08L54.06 76.2203ZM50.24 82.6003H53.99V83.5503H45.55V82.6003H49.15V81.2803H46.54V80.4202H49.15V79.3203H47.1C46.85 79.7303 46.56 80.0902 46.28 80.3802C46.08 80.2202 45.64 79.9602 45.39 79.8402C46.05 79.2502 46.6 78.3403 46.91 77.4303L47.91 77.6603C47.81 77.9203 47.71 78.1903 47.59 78.4403H49.15V77.4603H50.24V78.4403H53.31V79.3303H50.24V80.4303H52.99V81.2903H50.24V82.6103V82.6003ZM46.98 74.7203C47.23 75.1603 47.46 75.7203 47.53 76.1003L47.1 76.2203H50.33L50.03 76.1203C50.21 75.7203 50.44 75.1703 50.58 74.7203H46.98Z" fill="white"/>
<path d="M58.8 75.61C58.52 76.11 58.19 76.62 57.83 77.11V83.81H56.79V78.35C56.41 78.77 56.01 79.15 55.62 79.47C55.51 79.24 55.19 78.69 55.01 78.45C56.07 77.68 57.16 76.47 57.83 75.26L58.81 75.61H58.8ZM58.56 73.16C57.84 74.19 56.74 75.32 55.72 76.03C55.59 75.81 55.3 75.42 55.12 75.23C56.02 74.61 57.05 73.61 57.55 72.78L58.56 73.16ZM65.16 79.22C64.73 80.28 64.06 81.12 63.22 81.8C64.13 82.29 65.21 82.65 66.37 82.86C66.14 83.09 65.84 83.53 65.7 83.82C64.43 83.54 63.29 83.08 62.32 82.44C61.27 83.09 60.04 83.54 58.76 83.83C58.65 83.55 58.42 83.1 58.22 82.88C59.37 82.68 60.49 82.3 61.45 81.78C60.99 81.4 60.6 80.95 60.25 80.47C59.84 80.83 59.41 81.13 58.98 81.39C58.84 81.17 58.48 80.74 58.24 80.56C59.33 80 60.39 79.13 61.08 78.14C60.12 78.16 59.23 78.19 58.49 78.21L58.39 77.2C58.92 77.2 59.54 77.19 60.24 77.18C60.45 77 60.7 76.8 60.92 76.59C60.37 76.01 59.48 75.31 58.71 74.8L59.38 74.08C59.59 74.22 59.84 74.37 60.08 74.54C60.58 74 61.13 73.29 61.48 72.75L62.45 73.25C61.92 73.87 61.32 74.56 60.79 75.07C61.14 75.33 61.45 75.6 61.7 75.85C62.47 75.11 63.2 74.33 63.74 73.64L64.74 74.19C63.83 75.15 62.69 76.25 61.62 77.14C62.5 77.13 63.42 77.12 64.35 77.09C64.1 76.75 63.83 76.44 63.58 76.15L64.46 75.68C65.18 76.46 66.02 77.54 66.36 78.27L65.44 78.81C65.33 78.57 65.16 78.28 64.97 77.97C64.08 78.01 63.17 78.04 62.31 78.07C62.13 78.36 61.94 78.65 61.72 78.92H64.29L64.48 78.88L65.16 79.19V79.22ZM60.95 79.83C61.3 80.35 61.77 80.81 62.31 81.22C62.87 80.81 63.34 80.33 63.69 79.79H60.98L60.96 79.83H60.95Z" fill="white"/>
<path d="M72.46 82.1099C72.88 82.0699 73.23 82.0099 73.52 81.9399C75.04 81.5899 76.4 80.4899 76.4 78.5699C76.4 76.8399 75.37 75.4899 73.55 75.2599C73.38 76.3299 73.17 77.4799 72.84 78.5899C72.12 81.0099 71.14 82.3699 69.95 82.3699C68.76 82.3699 67.7 81.0399 67.7 79.0599C67.7 76.4199 70.04 74.1299 73.01 74.1299C75.98 74.1299 77.68 76.1199 77.68 78.6199C77.68 81.1199 76.09 82.8299 73.18 83.2399L72.47 82.1099H72.46ZM71.62 78.3499C71.92 77.4099 72.15 76.3399 72.27 75.2899C70.14 75.6399 68.89 77.4999 68.89 78.9599C68.89 80.3299 69.5 80.9499 69.98 80.9499C70.5 80.9499 71.07 80.1799 71.62 78.3499Z" fill="white"/>
<path d="M81.64 79.2598V82.5598C81.64 83.1098 81.52 83.4098 81.21 83.5798C80.89 83.7598 80.41 83.7998 79.65 83.7998C79.61 83.5398 79.48 83.0598 79.34 82.7698C79.82 82.7798 80.28 82.7798 80.41 82.7698C80.55 82.7698 80.61 82.7298 80.61 82.5698V79.6098C80.17 79.7498 79.72 79.8698 79.34 79.9898L79.09 78.9198C79.51 78.7998 80.04 78.6698 80.61 78.4998V76.1598H79.21V75.1298H80.61V72.8198H81.64V75.1298H82.82V76.1598H81.64V78.1898C82 78.0898 82.38 77.9898 82.76 77.8698L82.9 78.8798L81.64 79.2798V79.2598ZM89.35 78.8498C88.93 80.1198 88.21 81.1198 87.27 81.8698C88.1 82.3298 89.08 82.6498 90.2 82.8298C89.97 83.0698 89.67 83.4998 89.54 83.7998C88.29 83.5398 87.23 83.1298 86.35 82.5298C85.37 83.1198 84.22 83.4998 82.99 83.7698C82.92 83.4898 82.69 83.0298 82.5 82.7898C83.58 82.6198 84.6 82.3098 85.49 81.8498C84.85 81.2598 84.34 80.5398 83.95 79.7198L84.55 79.5398H83.58V78.6298H88.51L88.69 78.5798L89.35 78.8598V78.8498ZM83.97 78.3798H82.97V76.4498H87.65C88.03 75.8398 88.5 74.9298 88.74 74.2598L89.78 74.5798C89.43 75.1998 89.04 75.9098 88.69 76.4498H90.06V78.3798H89.03V77.3698H83.97V78.3798ZM89.73 73.6698C88.04 74.0998 85.45 74.3398 83.33 74.4498C83.29 74.1998 83.19 73.8298 83.08 73.5998C85.16 73.4798 87.64 73.2298 89.05 72.8398L89.73 73.6698ZM84.15 76.4398C84.04 76.0198 83.77 75.3598 83.48 74.8698L84.32 74.5898C84.62 75.0698 84.93 75.6898 85.04 76.1098L84.15 76.4298V76.4398ZM84.95 79.5298C85.3 80.2098 85.79 80.7998 86.4 81.2798C87.06 80.8098 87.59 80.2398 87.96 79.5298H84.95ZM86.22 76.2598C86.17 75.8298 85.97 75.1398 85.76 74.6198L86.65 74.4198C86.87 74.9198 87.08 75.6098 87.15 76.0298L86.21 76.2698L86.22 76.2598Z" fill="white"/>
<path d="M97.24 74.7498C96.84 75.4498 96.38 76.2598 95.97 76.7998L96.21 76.7298L96.91 77.3198C96.32 77.9398 95.53 78.6298 94.8 79.1498V79.5498L97.22 79.3598V80.3798C96.42 80.4498 95.6 80.5398 94.8 80.5998V82.6298C94.8 83.1798 94.69 83.4698 94.31 83.6398C93.93 83.8098 93.36 83.8098 92.56 83.8098C92.51 83.5098 92.34 83.0798 92.21 82.7898C92.77 82.8098 93.33 82.8098 93.48 82.7998C93.65 82.7898 93.7 82.7498 93.7 82.6098V80.6998C92.81 80.7798 91.99 80.8598 91.29 80.9198L91.18 79.8298C91.88 79.7798 92.75 79.7198 93.7 79.6498V78.6798H94.06C94.38 78.4298 94.72 78.1198 95.02 77.7998H91.71V76.8198H95.74L95.08 76.5598C95.48 75.9698 95.96 75.0398 96.22 74.3798L97.25 74.7798L97.24 74.7498ZM97.04 73.7398C95.55 74.1698 93.32 74.3998 91.49 74.5098C91.45 74.2298 91.31 73.8398 91.19 73.5998C92.99 73.4698 95.12 73.1898 96.38 72.8198L97.04 73.7398ZM91.9 76.6398C91.84 76.1798 91.62 75.4598 91.37 74.9398L92.23 74.7198C92.48 75.2398 92.72 75.9298 92.81 76.3898L91.9 76.6398ZM93.69 76.3598C93.68 75.8998 93.55 75.1698 93.41 74.6298L94.31 74.4898C94.48 75.0298 94.61 75.7398 94.63 76.1998L93.68 76.3598H93.69ZM100.66 82.5998C101.12 82.5998 101.18 82.1298 101.24 80.2998C101.52 80.5198 101.98 80.7298 102.3 80.7998C102.18 82.8998 101.9 83.6498 100.76 83.6498H99.16C98 83.6498 97.66 83.2398 97.66 81.8398V73.0098H98.81V81.8598C98.81 82.4798 98.88 82.5898 99.33 82.5898H100.66V82.5998Z" fill="white"/>
<path d="M108.83 81.1802C108.87 80.7702 108.88 80.1002 108.88 79.5102C107.87 80.0702 107.24 80.6102 107.24 81.3102C107.24 82.1302 108.01 82.2802 109.21 82.2802C110.17 82.2802 111.46 82.1602 112.51 81.9702L112.47 83.1802C111.61 83.2902 110.24 83.3802 109.17 83.3802C107.39 83.3802 106.02 82.9702 106.02 81.5002C106.02 80.0302 107.45 79.1102 108.81 78.4202C108.67 78.0002 108.28 77.8302 107.85 77.8302C107.11 77.8302 106.39 78.2102 105.88 78.6802C105.53 79.0202 105.18 79.4502 104.79 79.9502L103.77 79.1802C105.16 77.8602 105.96 76.7102 106.46 75.7102H106.11C105.62 75.7102 104.79 75.6902 104.13 75.6402V74.5202C104.75 74.6002 105.61 74.6502 106.17 74.6502H106.87C107.03 74.1102 107.12 73.5902 107.15 73.2202L108.39 73.3202C108.32 73.6302 108.22 74.0902 108.05 74.6002C109.22 74.5502 110.47 74.4402 111.56 74.2502V75.3502C110.4 75.5302 108.93 75.6302 107.65 75.6702C107.41 76.2002 107.1 76.7502 106.75 77.2202C107.12 77.0002 107.79 76.8702 108.26 76.8702C109 76.8702 109.62 77.2202 109.84 77.8802C110.57 77.5302 111.18 77.2802 111.75 77.0302C112.15 76.8502 112.49 76.6902 112.88 76.5002L113.35 77.6002C113.03 77.7002 112.51 77.8902 112.15 78.0302C111.54 78.2602 110.77 78.5802 109.94 78.9702C109.95 79.6402 109.98 80.5902 109.99 81.1502H108.84L108.83 81.1802Z" fill="white"/>
<path d="M121.72 77.17C121.07 77.65 120.39 78.08 119.68 78.5C121.25 78.33 122.86 78.09 123.87 77.82L124.55 78.56C123.11 78.94 121 79.21 119.14 79.34C119.07 79.6 119.01 79.87 118.95 80.12H124.56C124.56 80.12 124.52 80.44 124.5 80.61C124.22 82.3 123.94 83.09 123.55 83.45C123.27 83.7 122.99 83.76 122.53 83.79C122.16 83.81 121.46 83.81 120.73 83.78C120.72 83.47 120.57 83.04 120.4 82.75C121.11 82.82 121.87 82.83 122.17 82.83C122.4 82.83 122.55 82.82 122.69 82.72C122.92 82.54 123.12 82.04 123.3 81.04H118.69C118.64 81.24 118.58 81.44 118.53 81.6L117.41 81.44C117.59 80.9 117.78 80.16 117.97 79.4C117.21 79.77 116.46 80.1 115.69 80.4C115.56 80.17 115.21 79.74 114.99 79.52C116.09 79.14 117.2 78.67 118.24 78.13L118.3 77.85L118.68 77.9C119.11 77.66 119.53 77.42 119.94 77.16H115.5V76.2H119.3V75.02H116.4V74.1H119.3V72.77H120.4V74.1H123.11V74.69C123.57 74.23 124 73.77 124.38 73.29L125.29 73.79C124.59 74.65 123.78 75.46 122.9 76.2H125.77V77.16H121.68L121.72 77.17ZM121.37 76.21C121.86 75.84 122.34 75.44 122.79 75.03H120.44V76.21H121.38H121.37Z" fill="white"/>
<path d="M129.29 77.8303C129.29 79.5703 129.12 82.1003 128.13 83.7703C127.93 83.6003 127.45 83.3003 127.18 83.2103C128.13 81.6503 128.2 79.4203 128.2 77.8203V74.8103H132.03V72.7803H133.15V73.4903H137.08V74.2503H133.15V74.8103H136.95L137.13 74.7603L137.95 74.9803C137.76 75.5403 137.51 76.1703 137.25 76.6003C137.45 76.6603 137.69 76.7203 137.89 76.7403C137.79 77.5103 137.49 77.7103 136.56 77.7103H133.83C132.46 77.7103 132.04 77.5403 132.04 76.7303L129.87 76.8303L129.85 76.2403L132.04 76.1603V75.6303H129.31V77.8403L129.29 77.8303ZM128.56 82.9503C129.26 82.6503 129.68 82.0703 129.85 81.4103L130.7 81.6903C130.5 82.4703 130.11 83.1503 129.28 83.5603L128.55 82.9503H128.56ZM136.84 80.8803H133.28C133.7 81.1203 134.1 81.4203 134.32 81.6803L133.65 82.2703C133.36 81.9103 132.74 81.4503 132.18 81.1903L132.54 80.8803H130.07V78.1303H136.85V80.8803H136.84ZM131.08 79.2103H132.89V78.7103H131.08V79.2103ZM131.08 80.2903H132.89V79.7703H131.08V80.2903ZM134.38 82.7703C134.76 82.7703 134.84 82.6903 134.87 82.0103C135.09 82.1503 135.48 82.2903 135.77 82.3503C135.65 83.3703 135.36 83.6203 134.5 83.6203H132.59C131.38 83.6203 131.09 83.3703 131.09 82.4703V81.3403H132.11V82.4603C132.11 82.7403 132.18 82.7703 132.7 82.7703H134.38ZM136.43 77.0903C136.85 77.0903 136.98 77.0203 137.04 76.6603L136.24 76.4003C136.35 76.1803 136.45 75.9203 136.56 75.6303H133.07V76.1103L135.9 76.0003L135.92 76.5603L133.07 76.6803V76.7303C133.07 77.0303 133.2 77.0903 133.89 77.0903H136.43ZM135.78 78.7103H133.9V79.2103H135.78V78.7103ZM135.78 79.7703H133.9V80.2903H135.78V79.7703ZM136.44 81.2503C137.1 81.7503 137.83 82.5003 138.17 83.0503L137.27 83.5303C136.97 82.9803 136.25 82.1903 135.6 81.6603L136.44 81.2503Z" fill="white"/>
<path d="M142.97 73.4599C142.9 73.8899 142.86 74.3999 142.84 74.8199C142.79 76.1399 142.7 78.8699 142.7 80.5299C142.7 81.7799 143.49 82.2099 144.51 82.2099C146.6 82.2099 147.83 81.0299 148.68 79.7599L149.53 80.7999C148.74 81.9299 147.14 83.4599 144.48 83.4599C142.67 83.4599 141.46 82.6799 141.46 80.7099C141.46 79.0199 141.58 75.9599 141.58 74.8099C141.58 74.3199 141.54 73.8399 141.46 73.4399H142.97V73.4599Z" fill="white"/>
<path d="M157.97 75.88C157.23 76.05 156.4 76.18 155.58 76.28C155.47 76.8 155.34 77.32 155.21 77.83C154.78 79.51 153.99 81.96 153.34 83.3L152.02 82.86C152.74 81.65 153.59 79.2 154.04 77.53C154.15 77.17 154.24 76.77 154.33 76.39C154 76.4 153.68 76.41 153.38 76.41C152.83 76.41 152.4 76.39 151.96 76.36L151.94 75.18C152.52 75.25 152.94 75.28 153.39 75.28C153.76 75.28 154.16 75.27 154.58 75.23C154.64 74.88 154.7 74.57 154.72 74.35C154.77 73.97 154.78 73.53 154.76 73.27L156.21 73.38C156.13 73.68 156.03 74.16 155.98 74.4L155.84 75.1C156.56 75 157.29 74.86 157.97 74.69V75.88ZM157.6 79.92C157.5 80.29 157.43 80.66 157.43 80.95C157.43 81.49 157.72 81.97 159.23 81.97C160.01 81.97 160.82 81.87 161.61 81.73L161.57 82.94C160.91 83.04 160.12 83.11 159.22 83.11C157.29 83.11 156.29 82.47 156.29 81.3C156.29 80.81 156.37 80.3 156.47 79.81L157.6 79.92ZM157.13 76.99C157.77 76.92 158.58 76.87 159.35 76.87C160.03 76.87 160.75 76.91 161.43 76.98L161.39 78.12C160.79 78.05 160.08 77.98 159.38 77.98C158.6 77.98 157.87 78.02 157.14 78.1V77L157.13 76.99Z" fill="white"/>
<path d="M174.01 74.7402C173.9 74.8702 173.71 75.1002 173.61 75.2402C173.09 76.1202 171.95 77.6403 170.67 78.5503L169.67 77.7503C170.71 77.1403 171.77 75.9502 172.12 75.2702H165.54C165.07 75.2702 164.65 75.3102 164.14 75.3402V74.0103C164.58 74.0703 165.08 74.1203 165.54 74.1203H172.25C172.53 74.1203 173.06 74.0803 173.26 74.0403L174.02 74.7503L174.01 74.7402ZM169.17 76.3303C169.17 79.4603 168.99 81.7602 165.84 83.3802L164.74 82.4803C165.09 82.3603 165.51 82.1703 165.89 81.8903C167.6 80.7903 167.88 79.2803 167.88 77.2803C167.88 76.9603 167.87 76.6703 167.81 76.3203H169.18L169.17 76.3303Z" fill="white"/>
<path d="M181.97 81.8701C181.97 82.3601 181.99 83.0201 182.05 83.2901H180.56C180.6 83.0301 180.63 82.3701 180.63 81.8701V77.6001C179.37 78.2701 177.78 78.9401 176.29 79.3601L175.61 78.2001C177.66 77.7301 179.69 76.8501 181.02 76.0201C182.23 75.2601 183.48 74.2001 184.15 73.3301L185.17 74.2501C184.31 75.1101 183.18 76.0501 181.97 76.8301V81.8701Z" fill="white"/>
<path d="M196.74 76.9298C196.99 76.9298 197.45 76.9098 197.75 76.8698V78.1098C197.47 78.0898 197.05 78.0698 196.74 78.0698H193.66C193.61 79.3398 193.37 80.3998 192.92 81.2698C192.49 82.0698 191.58 82.9698 190.53 83.4998L189.43 82.6798C190.32 82.3198 191.17 81.6398 191.65 80.8898C192.17 80.0898 192.32 79.1398 192.37 78.0598H188.9C188.54 78.0598 188.15 78.0698 187.81 78.0998V76.8598C188.15 76.8998 188.53 76.9198 188.9 76.9198H196.74V76.9298ZM190.39 75.0198C189.99 75.0198 189.55 75.0298 189.22 75.0598V73.8198C189.58 73.8698 190 73.8998 190.39 73.8998H195.22C195.59 73.8998 196.04 73.8798 196.42 73.8198V75.0598C196.04 75.0398 195.59 75.0198 195.22 75.0198H190.39Z" fill="white"/>
<path d="M208.74 83.3103C208.58 82.8903 208.37 82.3603 208.12 81.8103C206.21 82.0403 202.38 82.4603 200.82 82.6003C200.52 82.6403 200.12 82.7003 199.76 82.7403L199.55 81.3503C199.92 81.3503 200.39 81.3503 200.75 81.3303C200.89 81.3203 201.06 81.3203 201.24 81.3103C201.91 79.6003 203.05 76.0203 203.39 74.8003C203.56 74.2203 203.6 73.9003 203.65 73.5503L205.15 73.8603C205.02 74.1803 204.86 74.5403 204.69 75.0703C204.33 76.2103 203.24 79.6003 202.64 81.1903C204.27 81.0503 206.3 80.8203 207.58 80.6503C207.12 79.7403 206.63 78.8603 206.21 78.3103L207.37 77.8103C208.21 79.0703 209.49 81.4603 210.01 82.7403L208.74 83.3203V83.3103Z" fill="white"/>
<path d="M44.02 234C44.02 230.43 45.32 228.69 47.35 228.69C49.38 228.69 50.68 230.44 50.68 234C50.68 237.56 49.36 239.38 47.35 239.38C45.34 239.38 44.02 237.59 44.02 234ZM49.14 234C49.14 231.04 48.4 229.97 47.35 229.97C46.3 229.97 45.56 231.05 45.56 234C45.56 236.95 46.3 238.1 47.35 238.1C48.4 238.1 49.14 236.98 49.14 234Z" fill="#8C5014"/>
<path d="M58.49 232.91V234.75C59.27 234.29 59.92 233.8 60.41 233.3L61.32 233.86C60.55 234.58 59.58 235.25 58.51 235.84L58.53 238.08C58.53 238.7 58.38 238.99 57.99 239.14C57.58 239.3 56.93 239.33 55.98 239.33C55.92 239.05 55.76 238.62 55.61 238.35C56.32 238.38 57.05 238.37 57.26 238.35C57.48 238.35 57.55 238.28 57.54 238.08V236.33C56.31 236.92 54.98 237.4 53.66 237.75C53.56 237.51 53.31 237.11 53.15 236.89C54.65 236.53 56.19 235.96 57.52 235.28V232.9H53.49V231.98H57.5V230.12H58.47V231.99H62.14V232.91H58.49Z" fill="#8C5014"/>
<path d="M47.92 220.04V225.8H52.6L47.92 220.04Z" fill="#8C5014"/>
<path d="M57.28 220.04V225.8H52.6L57.28 220.04Z" fill="#8C5014"/>
<path d="M52.6 220.04L47.92 225.8H52.6H57.28L52.6 220.04Z" fill="#8C5014"/>
</g>
<defs>
<clipPath id="clip0_183_443">
<rect width="346.64" height="239.38" fill="white"/>
</clipPath>
</defs>
</svg>
