<svg width="274" height="76" viewBox="0 0 274 76" fill="none" xmlns="http://www.w3.org/2000/svg">
<path opacity="0.95" fill-rule="evenodd" clip-rule="evenodd" d="M0 26.12C0.29 24.91 1.38 23.73 1.26 22.5C1.18 21.72 0.37 21.78 0.27 20.77C2.14 19.98 4.27 20.24 6.39 20.11C8.48 19.98 10.71 19.78 12.89 19.67C22.69 19.14 34.17 18.54 45.77 17.53C71.51 15.29 81.69 15.73 109.25 12.77C130.04 11 139.5 10.39 162.5 8.54001C166.45 8.23001 170.36 7.83001 174.41 7.63001C204.59 6.14001 239.63 2.05001 270.26 0.0100098C270.7 1.82001 270.88 2.25001 272 3.25001C272.57 3.76001 273.21 3.95001 273.33 4.71001C273.6 6.22001 271.79 7.41001 272.27 9.16001C271.92 9.36001 271.69 10.21 271.33 10.82C270.99 11.39 270.22 11.96 270.61 12.34C270.26 12.18 270 12.42 269.67 12.54C269.49 12.61 269.13 12.74 268.97 12.84C268.81 12.95 268.72 13.33 268.54 13.48C268.43 13.57 268.54 13.15 268.4 13.25C266.23 14.78 264.59 16.95 261.62 17.47C260.73 20.82 258.02 20.96 257.7 23.86C256.56 23.71 255.95 24.61 255.51 25.14C254.74 26.09 254.02 26.83 253.07 27.65C253.12 28.62 252.61 29.12 252.15 29.67C252 31.94 251.07 33.66 250.74 35.73C250.37 38.03 250.88 40.78 250.56 43.38C249.59 44.09 249.1 44.89 247.74 45.68C247.97 46.53 249.54 47.28 249.61 49.15C249.64 49.98 248.93 51.08 248.9 52.12C248.88 53.46 249.38 54.21 248.81 55.16C248.36 55.89 246.52 56.9 245.48 57.27C243.87 57.85 241.97 57.89 240 58.23C238.39 58.51 236.62 59.06 234.99 59.15C231.6 59.33 228.2 58.73 224.79 58.83C221.35 58.93 217.85 59.59 214.34 59.86C210.68 60.14 207.02 60.73 203.3 61.06C178.68 63.31 153.48 64.31 128.33 66.5C107.38 68.33 106.97 68.33 85.5 69.34C68.21 69.69 65.52 71.91 45.98 72.74C42.32 72.9 37.23 73.31 33.09 73.5C29.02 73.69 25.03 73.2 21.34 73.44C18.39 73.62 15.92 74.64 13.26 75.11C9.49 75.78 7.67 73.35 5.19 72.79C4.94 71.58 4.63 70.45 4.29 69.36C4.29 69.17 4.65 68.97 4.81 68.35C4.94 67.79 5.08 66.46 4.02 66.24C4.01 65.8 4.59 65.46 4.29 65.13C3.64 64.19 3.47 62.65 2.13 62.53C3.95 61.45 1.4 60.09 0.48 58.92C0.58 58.45 1.26 58.47 1.36 58C-0.36 56.91 1.73 54.55 0.23 53.38C0.31 52.84 0.58 52.48 0.72 52C1.06 51.53 -0.29 51.4 0.14 50.84C0.72 49.95 2.55 49.66 3.13 49.12C3.38 48.95 2.48 49.02 2.38 48.82C2.38 47.99 3.27 48.06 3.45 47.16C3.73 45.68 2.85 43.71 2.67 42.38C2.11 41.66 0.75 40.67 0.45 40.52C0.57 39.72 3.02 38.87 2.79 38.14C4.02 37.14 2.32 36.62 2.21 35.65C2.09 34.53 2.71 34.09 2.71 33.06C1.48 32.17 1.76 30.48 0.8 29.23C0.86 28.72 0.88 28.18 1.04 27.76C0.81 27.11 0.35 26.74 0.05 26.15L0 26.12Z" fill="#FBF4E2"/>
</svg>
