<svg width="137" height="45" viewBox="0 0 137 45" fill="none" xmlns="http://www.w3.org/2000/svg">
<path opacity="0.95" fill-rule="evenodd" clip-rule="evenodd" d="M0.947069 44.5005C0.947069 44.5005 6.25707 43.8704 10.7771 43.6604C15.2971 43.4504 23.2371 43.1105 27.6971 43.1805C32.1571 43.2605 40.3971 43.0205 40.3971 43.0205C40.3971 43.0205 49.7571 42.4204 56.9571 42.1604C64.1671 41.9004 64.6971 42.2804 76.2371 41.9804C87.7771 41.6904 95.3671 41.6505 101.447 41.5005C107.527 41.3605 119.237 40.4804 126.357 40.6404C133.477 40.8004 136.447 41.3805 136.037 40.6705C135.617 39.9605 135.727 36.0504 135.517 35.2804C135.307 34.5104 135.377 27.7105 135.187 26.8805C134.997 26.0505 134.327 18.1905 134.637 17.1105C134.957 16.0305 134.667 8.08045 134.297 7.04045C133.927 6.00045 133.317 0.16045 133.537 0.0204503C133.757 -0.11955 132.737 0.50045 131.637 0.63045C130.527 0.76045 124.627 1.38045 120.537 1.22045C116.457 1.06045 99.2871 1.65045 96.7271 1.85045C94.1671 2.05045 83.4271 2.13045 80.8971 2.25045C78.3671 2.37045 70.0471 2.50045 68.3771 2.60045C66.7071 2.71045 57.4371 3.39045 55.6371 3.38045C53.8371 3.38045 38.2271 3.31045 36.7971 3.33045C35.3671 3.33045 22.6871 3.74045 20.3271 3.81045C17.9571 3.88045 1.58707 3.99045 0.767069 3.96045C-0.022931 3.96045 -0.0329309 5.06045 0.0170691 5.27045C0.0670691 5.47045 0.197069 12.9805 0.437069 15.4305C0.687069 17.8705 0.117069 33.3305 0.357069 35.4005C0.597069 37.4705 0.937069 44.5105 0.937069 44.5105L0.947069 44.5005Z" fill="#FBF4E2"/>
</svg>
