<svg width="220" height="91" viewBox="0 0 220 91" fill="none" xmlns="http://www.w3.org/2000/svg">
<path opacity="0.95" fill-rule="evenodd" clip-rule="evenodd" d="M212.25 0C212.25 0 203.98 1.8 196.9 2.82C189.81 3.84 177.35 5.6 170.33 6.16C163.29 6.71 150.35 8.35 150.35 8.35C150.35 8.35 135.71 10.73 124.39 12.24C113.07 13.75 112.19 13.24 94.06 15.47C75.93 17.7 63.98 18.92 54.43 20.08C44.87 21.24 26.57 24.4 15.33 25.25C4.10002 26.09 -0.679978 25.63 0.0700225 26.68C0.830022 27.73 1.26002 33.91 1.71002 35.09C2.16002 36.27 3.10002 46.98 3.52002 48.28C3.94002 49.56 6.21002 61.83 5.87002 63.58C5.53002 65.33 7.21002 77.81 7.95002 79.39C8.68002 80.97 10.55 90.08 10.21 90.32C9.88002 90.57 11.39 89.45 13.11 89.07C14.83 88.69 24.03 86.81 30.49 86.44C36.94 86.07 63.9 82.52 67.9 81.8C71.91 81.09 88.8 79.32 92.76 78.74C96.72 78.17 109.81 76.69 112.42 76.27C115.03 75.84 129.53 73.36 132.36 73.1C135.19 72.84 159.79 70.54 162.04 70.3C164.29 70.07 184.19 67.49 187.9 67.02C191.62 66.55 217.39 63.87 218.68 63.79C219.97 63.71 219.82 61.97 219.71 61.66C219.6 61.35 218.24 49.54 217.49 45.72C216.73 41.91 215.26 17.48 214.56 14.26C213.87 11.04 212.25 0 212.25 0Z" fill="#FBF4E2"/>
</svg>
