<svg width="335" height="82" viewBox="0 0 335 82" fill="none" xmlns="http://www.w3.org/2000/svg">
<g clip-path="url(#clip0_31_2)">
<path opacity="0.95" fill-rule="evenodd" clip-rule="evenodd" d="M4.73 75.36C5.22 76.58 6.56 77.65 6.63 78.96C6.67 79.79 5.82 79.86 5.86 80.93C7.95 81.47 10.14 80.85 12.38 80.65C14.59 80.45 16.96 80.31 19.26 80.08C29.62 79.09 41.75 77.89 54.08 77.12C81.42 75.39 111.95 71.59 141.32 70.33C163.4 68.89 193.34 66.31 217.75 64.61C221.94 64.31 226.1 64.11 230.39 63.68C262.28 60.46 299.66 59.2 332.1 56.49C332.27 54.52 332.4 54.05 333.42 52.82C333.94 52.19 334.57 51.89 334.58 51.08C334.62 49.46 332.53 48.5 332.76 46.58C332.36 46.43 331.98 45.57 331.51 44.99C331.07 44.45 330.17 43.97 330.51 43.51C330.17 43.74 329.85 43.53 329.49 43.45C329.29 43.41 328.9 43.33 328.7 43.24C328.52 43.15 328.36 42.76 328.15 42.63C328.02 42.56 328.21 42.97 328.04 42.89C325.52 41.63 323.46 39.62 320.26 39.54C318.79 36.17 315.94 36.45 315.13 33.46C313.96 33.8 313.18 32.95 312.63 32.46C311.67 31.59 310.8 30.92 309.68 30.21C309.58 29.18 308.96 28.74 308.4 28.24C307.88 25.89 306.64 24.23 305.96 22.11C305.21 19.76 305.3 16.79 304.55 14.12C303.42 13.53 302.78 12.77 301.23 12.15C301.34 11.23 302.86 10.19 302.64 8.21002C302.54 7.33002 301.62 6.30003 301.43 5.21003C301.19 3.81003 301.61 2.94003 300.85 2.04003C300.26 1.34003 298.17 0.580025 297.02 0.360025C295.24 0.0100253 293.24 0.270025 291.12 0.220025C289.39 0.180025 287.45 -0.119975 285.72 0.0500253C282.14 0.400025 278.67 1.56003 275.07 2.01003C271.44 2.45003 267.67 2.31003 263.95 2.58003C260.06 2.86003 256.14 2.83003 252.19 3.07003C226.02 4.62003 199.44 7.55002 172.72 9.24002C150.46 10.65 130.11 12.43 107.44 14.77C89.25 17.15 66.15 16.97 45.54 19.19C41.68 19.6 36.28 19.98 31.9 20.44C27.6 20.88 23.5 22.03 19.59 22.37C16.46 22.65 13.72 21.96 10.85 21.9C6.79 21.8 5.27 24.63 2.75 25.62C2.68 26.93 2.53 28.16 2.34 29.36C2.38 29.56 2.78 29.71 3.04 30.34C3.27 30.91 3.63 32.28 2.55 32.68C2.61 33.14 3.27 33.41 3 33.81C2.46 34.9 2.54 36.54 1.15 36.87C3.23 37.72 0.77 39.54 0 40.92C0.18 41.39 0.89 41.27 1.07 41.75C-0.56 43.17 2.01 45.31 0.62 46.77C0.79 47.32 1.13 47.66 1.35 48.14C1.78 48.58 0.38 48.93 0.93 49.45C1.68 50.29 3.64 50.3 4.34 50.77C4.63 50.91 3.68 50.97 3.6 51.2C3.74 52.07 4.66 51.86 4.98 52.78C5.5 54.29 4.9 56.49 4.91 57.91C4.44 58.75 3.17 60 2.88 60.22C3.14 61.03 5.84 61.54 5.71 62.35C7.16 63.2 5.46 64.01 5.49 65.05C5.54 66.24 6.26 66.61 6.43 67.68C5.28 68.81 5.84 70.53 5.03 72C5.17 72.52 5.28 73.09 5.51 73.51C5.37 74.23 4.94 74.69 4.72 75.36H4.73Z" fill="#FBF4E2"/>
</g>
<defs>
<clipPath id="clip0_31_2">
<rect width="334.57" height="81.14" fill="white"/>
</clipPath>
</defs>
</svg>
